<svg xmlns="http://www.w3.org/2000/svg" xmlns:xlink="http://www.w3.org/1999/xlink">
  <defs>
    <linearGradient gradientUnits="userSpaceOnUse" x1="-819.2" x2="819.2" spreadMethod="pad" gradientTransform="matrix(0.1220703125 0 0 0.238037109375 924 329)" id="gradient0">
      <stop offset="0" stop-color="#F69878"/>
      <stop offset="1" stop-color="#F59170"/>
    </linearGradient>
    <linearGradient gradientUnits="userSpaceOnUse" x1="-819.2" x2="819.2" spreadMethod="pad" gradientTransform="matrix(0 0.29779052734375 -0.297210693359375 0 319.5 245)" id="gradient1">
      <stop offset="0" stop-color="#F69878"/>
      <stop offset="1" stop-color="#F59170"/>
    </linearGradient>
    <linearGradient gradientUnits="userSpaceOnUse" x1="-819.2" x2="819.2" spreadMethod="pad" gradientTransform="matrix(0 0.11151123046875 -0.11346435546875 0 321.5 386.05)" id="gradient2">
      <stop offset="0" stop-color="#F58865"/>
      <stop offset="1" stop-color="#F59373"/>
    </linearGradient>
    <linearGradient gradientUnits="userSpaceOnUse" x1="-819.2" x2="819.2" spreadMethod="pad" gradientTransform="matrix(0 -0.030517578125 0.030517578125 0 658 810)" id="gradient3">
      <stop offset="0" stop-opacity="0"/>
      <stop offset="1" stop-opacity="0.10196078431372549"/>
    </linearGradient>
    <linearGradient gradientUnits="userSpaceOnUse" x1="-819.2" x2="819.2" spreadMethod="pad" gradientTransform="matrix(0 -0.030517578125 -0.030517578125 0 794 810)" id="gradient4">
      <stop offset="0" stop-opacity="0"/>
      <stop offset="1" stop-opacity="0.10196078431372549"/>
    </linearGradient>
    <linearGradient gradientUnits="userSpaceOnUse" x1="-819.2" x2="819.2" spreadMethod="pad" gradientTransform="matrix(0 0.06072998046875 -0.07318115234375 0 322.1 783.25)" id="gradient5">
      <stop offset="0" stop-color="#F59575"/>
      <stop offset="1" stop-color="#F58C6A"/>
    </linearGradient>
  </defs>
  <g>
    <path stroke="none" fill="#FFFFFF" d="M0 490 L639 490 639 1024 0 1024 0 490"/>
    <path stroke="none" fill="url(#gradient0)" d="M824 134 L1024 134 1024 524 824 524 824 134"/>
    <path stroke="none" fill="url(#gradient1)" d="M321.5 479 L395.2 472.05 Q443.15 273.75 360.85 295.2 344.75 299.35 321.5 299.55 298.25 299.35 282.15 295.2 199.85 273.75 247.8 472.05 L321.5 479 M0 0 L639 0 639 490 0 490 0 0"/>
    <path stroke="none" fill="url(#gradient2)" d="M321.5 479 L247.8 472.05 Q199.85 273.75 282.15 295.2 298.25 299.35 321.5 299.55 344.75 299.35 360.85 295.2 443.15 273.75 395.2 472.05 L321.5 479"/>
    <path stroke="none" fill="#037E60" d="M587 490 L595 490 595 1024 587 1024 587 490"/>
    <path stroke="none" fill="#009F78" d="M595 490 L639 490 639 1024 595 1024 595 490"/>
    <path stroke="none" fill="#FFFFFF" d="M587 1024 L483 1024 483 490 587 490 587 1024"/>
    <path stroke="none" fill="#F58C6A" d="M639 524 L1024 524 1024 764 639 764 639 524"/>
    <path stroke="none" fill="#037E60" d="M48 490 L56 490 56 1024 48 1024 48 490"/>
    <path stroke="none" fill="#009F78" d="M48 490 L48 1024 4 1024 4 490 48 490"/>
    <path stroke="none" fill="#FFFFFF" d="M56 1024 L56 490 160 490 160 1024 56 1024"/>
    <path stroke="none" fill="#F47D59" d="M313.55 247.05 Q310 245.2 310 242.55 310 240.55 312.4 240 L331.7 240 Q334 240.6 334 242.55 334 245.2 330.5 247.05 327 248.95 322 249 317.05 248.95 313.55 247.05 M327.2 279.4 Q327.2 280.2 325.65 280.75 L321.95 281.3 318.2 280.75 Q316.7 280.2 316.7 279.4 L316.7 279.35 Q316.75 277.9 318.2 276.8 319.8 275.7 321.95 275.7 324.15 275.7 325.65 276.8 327.15 277.9 327.2 279.35 L327.2 279.4"/>
    <path stroke="none" fill="#220F0F" d="M365.05 220.45 Q365.05 224.25 362.5 226.9 360 229.6 356.4 229.6 352.8 229.6 350.25 226.9 347.75 224.25 347.75 220.45 347.75 216.6 350.25 213.95 352.8 211.3 356.4 211.3 360 211.3 362.5 213.95 365.05 216.6 365.05 220.45 M295.65 220.45 Q295.65 224.25 293.1 226.9 290.6 229.6 287 229.6 283.4 229.6 280.85 226.9 278.35 224.25 278.35 220.45 278.35 216.6 280.85 213.95 283.4 211.3 287 211.3 290.6 211.3 293.1 213.95 295.65 216.6 295.65 220.45"/>
    <path fill="none" stroke="#F47D59" stroke-width="5" stroke-linecap="round" stroke-linejoin="round" d="M307.7 264.9 Q336 264.9 340.7 271.5"/>
    <path stroke="none" fill="#220F0F" d="M371.3 191.25 L375 203.6 374.95 204.85 374.25 205.8 372.95 206.15 Q356.3 205.25 340.05 213.8 L338.75 214 337.7 213.35 Q337.2 212.85 337.1 212.25 337.1 211.5 337.5 210.95 348.6 193.85 368.95 189.9 369.7 189.7 370.35 190.15 371.05 190.55 371.3 191.25"/>
    <path stroke="none" fill="#220F0F" d="M271.1 198.75 Q271.3 198 271.95 197.5 L273.35 197.3 Q293.9 200.35 305.7 217.05 L306.1 218.35 305.6 219.55 Q305.15 220 304.5 220.15 L303.25 220.05 Q286.65 212.15 270.1 213.7 L268.75 213.45 Q268.2 213.05 267.95 212.45 267.7 211.85 267.85 211.25 L271.1 198.75"/>
    <path stroke="none" fill="#F58966" d="M241.2 184.25 Q241.7 168.9 247.25 163.05 254.1 154.15 260.7 152.6 267.35 151 272.8 151.35 277.65 151.6 288.45 155.95 253 147.95 241.2 184.25 M0 310 Q53.35 299.8 95.45 277.55 32.35 330.65 0 331 L0 310 M143.8 244.95 Q154.35 235.9 163.9 225.85 L173.1 215.6 Q182.7 205 193.2 209.65 L194 210.05 Q197.75 212 199.7 215.8 L202.9 221.95 Q190.85 206.9 143.8 244.95"/>
    <path stroke="none" fill="#220F0F" d="M143.8 244.95 L140.75 247.45 Q122.4 262.6 101 274.5 L95.45 277.55 Q53.35 299.8 0 310 L0 0 322 0 322 162.5 315 162.5 Q304.3 162.5 291.25 157.1 L288.45 155.95 Q277.65 151.6 272.8 151.35 267.35 151 260.7 152.6 254.1 154.15 247.25 163.05 241.7 168.9 241.2 184.25 240.95 193.2 242.4 205.35 L245.1 230.1 Q247.25 251.5 236.65 253.15 231.5 254.5 225.8 251.1 215.25 244.75 202.9 221.95 L199.7 215.8 Q197.75 212 194 210.05 L193.2 209.65 Q182.7 205 173.1 215.6 L163.9 225.85 Q154.35 235.9 143.8 244.95"/>
    <path stroke="none" fill="#F47B66" d="M183.45 220.7 L183.7 220.6 184.4 220.15 184.6 220.05 188.95 218.55 189.25 218.5 189.4 218.45 191.55 218.15 191.7 218.15 192.05 218.15 192.9 218.25 Q193.3 218.25 193.45 218.85 193.8 219.35 193.4 219.75 193.35 220.2 192.65 220.3 L190.45 221.3 190.25 221.4 189.55 221.8 189.45 221.85 189.1 222 188.65 222.3 188.55 222.35 186.35 223.85 184.2 225.8 184.25 225.7 183.9 226.1 183.75 226.25 182.05 228.3 181.95 228.35 181.85 228.45 181.3 229.35 181.25 229.4 181.2 229.5 181 229.8 180.8 230.2 180.7 230.35 180.6 230.55 180.5 230.75 180.45 230.8 179.7 232.65 179.4 233.5 178.95 235.75 178.85 237.5 178.85 237.6 178.8 237.95 178.85 239.2 179.2 241.4 179.35 242.15 179.45 242.45 179.5 242.6 179.5 242.7 180.05 244.2 181.15 246.25 181.2 246.35 181.25 246.45 181.55 246.95 182.1 247.65 182.15 247.75 182.5 248.2 182.6 248.3 182.7 248.4 183.25 249.05 183.35 249.15 183.5 249.3 183.6 249.35 184.6 250.4 184.7 250.5 185 250.8 185.4 251.1 185.5 251.2 185.55 251.25 185.7 251.35 188.3 253.3 189.65 254 189.7 254.05 190.5 254.45 190.65 254.5 191 254.65 191.15 254.75 191.4 254.8 191.6 254.9 192.55 255.25 192.65 255.3 193 255.45 193.1 255.45 195.45 256.2 195.85 256.45 195.9 256.5 196.2 257.2 195.9 257.9 195.8 258 195.2 258.3 194.2 258.4 194.05 258.4 190.5 258.15 190.2 258.1 190.1 258.1 189.6 258 189.5 258 188.45 257.75 188.3 257.7 187.75 257.55 187.6 257.5 185.7 256.8 185.55 256.7 185.3 256.55 184.2 256.05 184.1 256 181.55 254.45 181.4 254.35 178.05 251.4 177.9 251.2 177.8 251.05 177.85 251.2 177.05 250.3 177 250.15 176.85 249.95 176.65 249.75 176.55 249.6 175.75 248.4 175.7 248.4 Q174.85 247 174.35 245.7 L174.3 245.65 173.6 243.75 173.6 243.65 173.4 242.75 Q172.95 241.2 172.9 239.7 L172.85 239.35 172.85 239.2 172.85 236.95 172.9 236.65 172.9 236.5 173.35 233.55 173.4 233.5 Q173.7 232 174.35 230.55 L174.4 230.35 174.45 230.25 174.75 229.6 174.85 229.45 174.95 229.3 174.85 229.4 175.25 228.6 175.35 228.5 175.55 228.2 175.45 228.3 175.6 228 175.7 227.9 176 227.45 176.1 227.3 176.15 227.3 176.5 226.75 176.6 226.6 176.65 226.6 176.7 226.5 176.75 226.4 178 224.9 178.15 224.8 178.4 224.6 178.7 224.3 178.9 224.05 179 223.9 180.15 222.9 180.3 222.8 180.5 222.7 180.55 222.6 180.65 222.5 181.1 222.15 181.25 222.05 183.25 220.75 183.45 220.7 M195.75 237.6 Q196.2 240.65 195.4 242.95 194.5 245.3 192.8 245.6 191.15 245.85 189.65 243.8 188.1 241.9 187.65 238.85 187.15 235.75 188.05 233.4 188.9 231.1 190.55 230.85 192.25 230.55 193.8 232.55 195.25 234.5 195.75 237.6 M191.25 254.8 L191.3 254.85 191.3 254.8 191.25 254.8"/>
    <path stroke="none" fill="#220F0F" d="M354.55 155.95 L351.75 157.1 Q338.7 162.5 328 162.5 L321 162.5 321 0 643 0 643 310 Q589.65 299.8 547.55 277.55 L542 274.5 Q520.6 262.6 502.25 247.45 L499.2 244.95 Q488.65 235.9 479.1 225.85 L469.9 215.6 Q460.3 205 449.8 209.65 L449 210.05 Q445.25 212 443.3 215.8 L440.1 221.95 Q427.75 244.75 417.2 251.1 411.5 254.5 406.35 253.15 395.75 251.5 397.9 230.1 L400.6 205.35 Q402.05 193.2 401.8 184.25 401.3 168.9 395.75 163.05 388.9 154.15 382.3 152.6 375.65 151 370.2 151.35 365.35 151.6 354.55 155.95"/>
    <path stroke="none" fill="#F58966" d="M354.55 155.95 Q365.35 151.6 370.2 151.35 375.65 151 382.3 152.6 388.9 154.15 395.75 163.05 401.3 168.9 401.8 184.25 390 147.95 354.55 155.95 M440.1 221.95 L443.3 215.8 Q445.25 212 449 210.05 L449.8 209.65 Q460.3 205 469.9 215.6 L479.1 225.85 Q488.65 235.9 499.2 244.95 452.15 206.9 440.1 221.95 M547.55 277.55 Q589.65 299.8 643 310 L643 331 Q610.65 330.65 547.55 277.55"/>
    <path stroke="none" fill="#F47B66" d="M451.75 254.8 L451.7 254.8 451.7 254.85 451.75 254.8 M447.25 237.6 Q447.75 234.5 449.2 232.55 450.75 230.55 452.45 230.85 454.1 231.1 454.95 233.4 455.85 235.75 455.35 238.85 454.9 241.9 453.35 243.8 451.85 245.85 450.2 245.6 448.5 245.3 447.6 242.95 446.8 240.65 447.25 237.6 M459.55 220.7 L459.75 220.75 461.75 222.05 461.9 222.15 462.35 222.5 462.45 222.6 462.5 222.7 462.7 222.8 462.85 222.9 464 223.9 464.1 224.05 464.3 224.3 464.6 224.6 464.85 224.8 465 224.9 466.25 226.4 466.3 226.5 466.35 226.6 466.4 226.6 466.5 226.75 466.85 227.3 466.9 227.3 467 227.45 467.3 227.9 467.4 228 467.55 228.3 467.45 228.2 467.65 228.5 467.75 228.6 468.15 229.4 468.05 229.3 468.15 229.45 468.25 229.6 468.55 230.25 468.6 230.35 468.65 230.55 469.6 233.5 469.65 233.55 470.1 236.5 470.1 236.65 470.15 236.95 470.15 239.2 470.15 239.35 470.1 239.7 Q470.05 241.2 469.6 242.75 L469.4 243.65 469.4 243.75 468.7 245.65 468.65 245.7 467.3 248.4 467.25 248.4 466.45 249.6 466.35 249.75 466.15 249.95 466 250.15 465.95 250.3 465.15 251.2 465.2 251.05 465.1 251.2 464.95 251.4 461.6 254.35 461.45 254.45 458.9 256 458.8 256.05 457.7 256.55 457.45 256.7 457.3 256.8 455.4 257.5 455.25 257.55 454.7 257.7 454.55 257.75 453.5 258 453.4 258 452.9 258.1 452.8 258.1 452.5 258.15 448.95 258.4 448.8 258.4 447.8 258.3 Q447.45 258.25 447.2 258 L447.1 257.9 Q446.8 257.6 446.8 257.2 446.8 256.8 447.1 256.5 L447.15 256.45 447.55 256.2 449.9 255.45 450 255.45 450.35 255.3 450.45 255.25 451.4 254.9 451.6 254.8 451.85 254.75 Q451.95 254.65 452 254.65 L452.35 254.5 452.5 254.45 453.3 254.05 453.35 254 454.7 253.3 457.3 251.35 457.45 251.25 457.5 251.2 457.6 251.1 458 250.8 458.3 250.5 458.4 250.4 459.4 249.35 459.5 249.3 459.65 249.15 459.75 249.05 460.3 248.4 460.4 248.3 460.5 248.2 460.85 247.75 460.9 247.65 461.45 246.95 461.75 246.45 461.8 246.35 461.85 246.25 462.95 244.2 463.5 242.7 463.5 242.6 463.55 242.45 463.65 242.15 463.8 241.4 464.15 239.2 464.2 237.95 464.15 237.6 464.15 237.5 464.05 235.75 463.6 233.5 463.3 232.65 462.55 230.8 462.5 230.75 462.4 230.55 462.3 230.35 462.2 230.2 462 229.8 461.8 229.5 461.75 229.4 461.7 229.35 461.15 228.45 461.05 228.35 460.95 228.3 459.25 226.25 459.1 226.1 458.75 225.7 458.8 225.8 456.65 223.85 454.45 222.35 454.35 222.3 453.9 222 453.55 221.85 453.45 221.8 452.75 221.4 452.55 221.3 450.35 220.3 Q449.65 220.2 449.6 219.75 449.2 219.35 449.55 218.85 449.7 218.25 450.1 218.25 L450.95 218.15 451.3 218.15 451.45 218.15 453.6 218.45 453.75 218.5 454.05 218.55 458.4 220.05 458.6 220.15 459.3 220.6 459.55 220.7"/>
    <path stroke="none" fill="#202020" d="M639 524 L639 0 1024 0 1024 134 824 134 824 524 639 524"/>
    <path stroke="none" fill="#FFFFFF" d="M613 764 L1024 764 1024 1024 613 1024 613 764"/>
    <path stroke="none" fill="#000000" fill-opacity="0.10196078431372549" d="M1024 785 L1024 801 613 801 613 785 1024 785"/>
    <path stroke="none" fill="url(#gradient3)" d="M683 785 Q683 835 633 835 L633 785 683 785"/>
    <path stroke="none" fill="url(#gradient4)" d="M769 785 L819 785 819 835 Q769 835 769 785"/>
    <path stroke="none" fill="#202020" d="M769.75 326.3 L758.1 356.85 Q757.2 359.15 755.9 361.3 L751.1 368.8 Q748.9 372.2 745.8 374.65 L742.35 377.35 Q735.95 382.4 727.75 382.4 722.55 382.4 717.9 380.3 713.2 378.15 709.85 374.25 L701.5 364.7 Q697.1 359.55 696.05 352.95 L695.05 346.75 694.35 342.6 691.45 326.3 769.75 326.3"/>
    <path stroke="none" fill="#61150D" d="M769.75 326.3 L800.65 326.3 798.25 330.9 798.15 344.6 779.4 393.8 756.3 456.65 Q753.85 463.15 748.5 467.5 743.25 471.7 736.6 472.75 L730.6 473.75 720.85 473.4 716.05 472.3 Q709 470.7 703.8 465.55 L703.2 465 Q699.65 461.45 697.75 456.75 L678.1 408.65 674.1 394.85 668.05 368.65 666.6 352.95 666.55 326.3 691.45 326.3 694.35 342.6 695.05 346.75 696.05 352.95 Q697.1 359.55 701.5 364.7 L709.85 374.25 Q713.2 378.15 717.9 380.3 722.55 382.4 727.75 382.4 735.95 382.4 742.35 377.35 L745.8 374.65 Q748.9 372.2 751.1 368.8 L755.9 361.3 Q757.2 359.15 758.1 356.85 L769.75 326.3 M716.2 386.35 Q715.1 386.35 714.3 387.15 713.5 387.95 713.5 389.05 L713.5 389.1 Q713.5 390.2 714.3 390.95 715.1 391.75 716.2 391.75 L737.45 391.75 Q738.55 391.75 739.35 390.95 740.15 390.2 740.15 389.1 L740.15 389.05 Q740.15 387.95 739.35 387.15 738.55 386.35 737.45 386.35 L716.2 386.35"/>
    <path stroke="none" fill="#CCDDE7" d="M666.55 326.3 L666.6 352.95 668.05 368.65 674.1 394.85 678.1 408.65 697.75 456.75 Q699.65 461.45 703.2 465 L703.8 465.55 Q709 470.7 716.05 472.3 L720.85 473.4 730.6 473.75 736.6 472.75 Q743.25 471.7 748.5 467.5 753.85 463.15 756.3 456.65 L779.4 393.8 798.15 344.6 798.25 330.9 800.65 326.3 806.45 315 821 319.55 821 501.95 646 501.95 646 326.3 666.55 326.3"/>
    <path stroke="none" fill="#4D160E" d="M716.2 386.35 L737.45 386.35 Q738.55 386.35 739.35 387.15 740.15 387.95 740.15 389.05 L740.15 389.1 Q740.15 390.2 739.35 390.95 738.55 391.75 737.45 391.75 L716.2 391.75 Q715.1 391.75 714.3 390.95 713.5 390.2 713.5 389.1 L713.5 389.05 Q713.5 387.95 714.3 387.15 715.1 386.35 716.2 386.35"/>
    <path stroke="none" fill="#FFFFFF" d="M483 1024 L160 1024 160 490 483 490 483 1024"/>
    <path stroke="none" fill="#D7CBCB" d="M326.7 876.55 Q326.7 878.25 325.5 879.4 324.35 880.6 322.65 880.6 320.95 880.6 319.75 879.4 318.55 878.25 318.55 876.55 318.55 874.85 319.75 873.65 320.95 872.45 322.65 872.45 324.35 872.45 325.5 873.65 326.7 874.85 326.7 876.55 M326.7 916.05 Q326.7 917.75 325.5 918.9 324.35 920.1 322.65 920.1 320.95 920.1 319.75 918.9 318.55 917.75 318.55 916.05 318.55 914.35 319.75 913.15 320.95 911.95 322.65 911.95 324.35 911.95 325.5 913.15 326.7 914.35 326.7 916.05"/>
    <path stroke="none" fill="#202020" d="M483 994 L483 1024 160 1024 160 994 263.75 994 287.65 999.25 Q296.75 1000.2 302.2 996 L304.3 994 339.7 994 341.8 996 Q347.2 1000.2 356.35 999.25 L380.25 994 483 994"/>
    <path stroke="none" fill="#009F78" d="M483 994 L380.25 994 483 971.45 483 994 M160 994 L160 971.25 263.75 994 160 994 M304.3 994 Q306.2 991.85 307.45 988.9 L322 949 336.55 988.9 Q337.8 991.85 339.7 994 L304.3 994"/>
    <path stroke="none" fill="#202020" d="M666.55 151.3 L666.6 177.95 668.05 193.65 674.1 219.85 678.1 233.65 697.75 281.75 Q699.65 286.45 703.2 290 L703.8 290.55 Q709 295.7 716.05 297.3 L720.85 298.4 730.6 298.75 736.6 297.75 Q743.25 296.7 748.5 292.5 753.85 288.15 756.3 281.65 L779.4 218.8 798.15 169.6 798.25 155.9 800.65 151.3 806.45 140 821 144.55 821 326.95 646 326.95 646 151.3 666.55 151.3"/>
    <path stroke="none" fill="#FFFFFF" d="M666.55 151.3 L691.45 151.3 694.35 167.6 695.05 171.75 696.05 177.95 Q697.1 184.55 701.5 189.7 L709.85 199.25 Q713.2 203.15 717.9 205.3 722.55 207.4 727.75 207.4 735.95 207.4 742.35 202.35 L745.8 199.65 Q748.9 197.2 751.1 193.8 L755.9 186.3 Q757.2 184.15 758.1 181.85 L769.75 151.3 800.65 151.3 798.25 155.9 798.15 169.6 779.4 218.8 756.3 281.65 Q753.85 288.15 748.5 292.5 743.25 296.7 736.6 297.75 L730.6 298.75 720.85 298.4 716.05 297.3 Q709 295.7 703.8 290.55 L703.2 290 Q699.65 286.45 697.75 281.75 L678.1 233.65 674.1 219.85 668.05 193.65 666.6 177.95 666.55 151.3 M716.2 211.35 Q715.1 211.35 714.3 212.15 713.5 212.95 713.5 214.05 L713.5 214.1 Q713.5 215.2 714.3 215.95 715.1 216.75 716.2 216.75 L737.45 216.75 Q738.55 216.75 739.35 215.95 740.15 215.2 740.15 214.1 L740.15 214.05 Q740.15 212.95 739.35 212.15 738.55 211.35 737.45 211.35 L716.2 211.35"/>
    <path stroke="none" fill="#D7CBCB" d="M716.2 211.35 L737.45 211.35 Q738.55 211.35 739.35 212.15 740.15 212.95 740.15 214.05 L740.15 214.1 Q740.15 215.2 739.35 215.95 738.55 216.75 737.45 216.75 L716.2 216.75 Q715.1 216.75 714.3 215.95 713.5 215.2 713.5 214.1 L713.5 214.05 Q713.5 212.95 714.3 212.15 715.1 211.35 716.2 211.35 M769.75 151.3 L758.1 181.85 Q757.2 184.15 755.9 186.3 L751.1 193.8 Q748.9 197.2 745.8 199.65 L742.35 202.35 Q735.95 207.4 727.75 207.4 722.55 207.4 717.9 205.3 713.2 203.15 709.85 199.25 L701.5 189.7 Q697.1 184.55 696.05 177.95 L695.05 171.75 694.35 167.6 691.45 151.3 769.75 151.3"/>
    <path stroke="none" fill="#D7CBCB" d="M322.1 723.3 L316.25 724.45 309.65 725.9 Q288.1 731.3 288.05 739 288.15 790.05 309.65 825.85 312.75 831 316.25 835.8 L322.1 843.2 Q314.95 839.1 308.6 833 280.7 805.95 269.05 739 280.65 728.9 308.6 724.85 L322.1 723.3 335.6 724.85 Q363.55 728.9 375.15 739 363.55 805.95 335.6 833 329.3 839.1 322.1 843.2 L327.95 835.8 Q331.5 830.95 334.6 825.8 356.05 790.05 356.15 739 L356.1 739 Q356.05 731.3 334.6 725.9 L327.9 724.45 322.1 723.3"/>
    <path stroke="none" fill="url(#gradient5)" d="M322.1 723.3 L327.9 724.45 334.6 725.9 Q356.05 731.3 356.1 739 L356.15 739 Q356.05 790.05 334.6 825.8 331.5 830.95 327.95 835.8 L322.1 843.2 316.25 835.8 Q312.75 831 309.65 825.85 288.15 790.05 288.05 739 288.1 731.3 309.65 725.9 L316.25 724.45 322.1 723.3"/>
    <path stroke="none" fill="#D7CBCB" d="M769.75 326.3 L758.1 356.85 Q757.2 359.15 755.9 361.3 L751.1 368.8 Q748.9 372.2 745.8 374.65 L742.35 377.35 Q735.95 382.4 727.75 382.4 722.55 382.4 717.9 380.3 713.2 378.15 709.85 374.25 L701.5 364.7 Q697.1 359.55 696.05 352.95 L695.05 346.75 694.35 342.6 691.45 326.3 769.75 326.3 M716.2 386.35 L737.45 386.35 Q738.55 386.35 739.35 387.15 740.15 387.95 740.15 389.05 L740.15 389.1 Q740.15 390.2 739.35 390.95 738.55 391.75 737.45 391.75 L716.2 391.75 Q715.1 391.75 714.3 390.95 713.5 390.2 713.5 389.1 L713.5 389.05 Q713.5 387.95 714.3 387.15 715.1 386.35 716.2 386.35"/>
    <path stroke="none" fill="#FFFFFF" d="M716.2 386.35 Q715.1 386.35 714.3 387.15 713.5 387.95 713.5 389.05 L713.5 389.1 Q713.5 390.2 714.3 390.95 715.1 391.75 716.2 391.75 L737.45 391.75 Q738.55 391.75 739.35 390.95 740.15 390.2 740.15 389.1 L740.15 389.05 Q740.15 387.95 739.35 387.15 738.55 386.35 737.45 386.35 L716.2 386.35 M691.45 326.3 L694.35 342.6 695.05 346.75 696.05 352.95 Q697.1 359.55 701.5 364.7 L709.85 374.25 Q713.2 378.15 717.9 380.3 722.55 382.4 727.75 382.4 735.95 382.4 742.35 377.35 L745.8 374.65 Q748.9 372.2 751.1 368.8 L755.9 361.3 Q757.2 359.15 758.1 356.85 L769.75 326.3 800.65 326.3 798.25 330.9 798.15 344.6 779.4 393.8 756.3 456.65 Q753.85 463.15 748.5 467.5 743.25 471.7 736.6 472.75 L730.6 473.75 720.85 473.4 716.05 472.3 Q709 470.7 703.8 465.55 L703.2 465 Q699.65 461.45 697.75 456.75 L678.1 408.65 674.1 394.85 668.05 368.65 666.6 352.95 666.55 326.3 691.45 326.3"/>
    <path stroke="none" fill="#202020" d="M666.55 326.3 L666.6 352.95 668.05 368.65 674.1 394.85 678.1 408.65 697.75 456.75 Q699.65 461.45 703.2 465 L703.8 465.55 Q709 470.7 716.05 472.3 L720.85 473.4 730.6 473.75 736.6 472.75 Q743.25 471.7 748.5 467.5 753.85 463.15 756.3 456.65 L779.4 393.8 798.15 344.6 798.25 330.9 800.65 326.3 806.45 315 821 319.55 821 501.95 646 501.95 646 326.3 666.55 326.3"/>
    <path stroke="none" fill="#009F78" d="M355.15 735.7 L388.7 771.45 Q362.45 788.25 327.85 836.2 358.55 772.5 355.15 735.7"/>
    <path stroke="none" fill="#009F78" d="M289.05 735.65 Q285.65 772.45 316.35 836.15 281.75 788.2 255.5 771.4 L289.05 735.65"/>
    <path stroke="none" fill="#220F0F" d="M191.75 165.35 L226.25 156.2 228.1 156.35 Q229 156.65 229.6 157.4 230.15 158.15 230.2 159.15 231.65 187.4 245.75 203.85 246.4 204.6 246.6 205.7 246.55 206.7 245.95 207.6 245.4 208.5 244.4 208.8 L242.4 208.9 Q207.65 198.7 189.9 170.1 189.3 169.15 189.35 168.15 189.5 167.15 190.1 166.35 190.75 165.65 191.75 165.35"/>
    <path stroke="none" fill="#220F0F" d="M444.95 157.85 Q445.95 158.15 446.6 158.85 447.2 159.65 447.35 160.65 447.4 161.65 446.8 162.6 429.05 191.2 394.3 201.4 L392.3 201.3 Q391.3 201 390.75 200.1 390.15 199.2 390.1 198.2 390.3 197.1 390.95 196.35 405.05 179.9 406.5 151.65 406.55 150.65 407.1 149.9 407.7 149.15 408.6 148.85 L410.45 148.7 444.95 157.85"/>
    <path stroke="none" fill="#220F0F" d="M376.85 135 Q377.85 135.3 378.5 136 379.1 136.8 379.25 137.8 379.3 138.8 378.7 139.75 360.95 168.35 326.2 178.55 L324.2 178.45 Q323.2 178.15 322.65 177.25 322.05 176.35 322 175.35 322.2 174.25 322.85 173.5 336.95 157.05 338.4 128.8 338.45 127.8 339 127.05 339.6 126.3 340.5 126 L342.35 125.85 376.85 135"/>
    <path stroke="none" fill="#220F0F" d="M343.8 146.75 Q344.75 147.3 345.15 148.1 345.55 149.05 345.45 150.05 345.25 151 344.4 151.8 319.85 174.8 283.65 175.65 282.45 175.7 281.7 175.05 280.85 174.55 280.55 173.5 280.2 172.5 280.4 171.55 280.85 170.5 281.7 169.95 299.55 157.7 308.25 130.8 308.55 129.85 309.3 129.25 310.1 128.7 311.05 128.6 312.05 128.5 312.9 128.95 L343.8 146.75"/>
    <path stroke="none" fill="#202020" d="M483 510 L160 510 160 490 483 490 483 510"/>
    <path stroke="none" fill="#009F78" d="M483 531.55 L384.8 510 483 510 483 531.55 M160 531.75 L160 510 259.2 510 160 531.75"/>
    <path stroke="none" fill="#F47B66" d="M368.65 244.6 L358.75 258.15 Q358.5 258.55 358.1 258.55 L357.3 258.45 Q356.9 258.25 356.8 257.85 356.65 257.45 356.85 257.05 L363.6 241.7 363.7 241.5 373.65 227.95 Q373.85 227.6 374.3 227.55 L375.1 227.65 375.6 228.25 375.55 229.05 368.75 244.4 368.65 244.6"/>
    <path stroke="none" fill="#220F0F" d="M323.25 250.85 L323.85 250.65 Q344.85 252.6 355.65 268.65 L355.9 269.65 355.65 270.5 354.95 270.95 Q338.65 272.3 323.3 262.9 L322.95 262.6 322.55 262.9 Q307.2 272.3 290.9 270.95 L290.2 270.5 289.95 269.65 Q289.95 269.1 290.2 268.65 301 252.6 322 250.65 L322.6 250.85 322.95 251.15 323.25 250.85"/>
  </g>
</svg>