<svg xmlns="http://www.w3.org/2000/svg" xmlns:xlink="http://www.w3.org/1999/xlink">
  <defs>
    <linearGradient gradientUnits="userSpaceOnUse" x1="-819.2" x2="819.2" spreadMethod="pad" gradientTransform="matrix(0 0.30145263671875 -0.299072265625 0 479.5 245)" id="gradient0">
      <stop offset="0" stop-color="#B9CFDE"/>
      <stop offset="1" stop-color="#6386A3"/>
    </linearGradient>
    <linearGradient gradientUnits="userSpaceOnUse" x1="-819.2" x2="819.2" spreadMethod="pad" gradientTransform="matrix(0.1220703125 0 0 0.238037109375 924 329)" id="gradient1">
      <stop offset="0" stop-color="#F69878"/>
      <stop offset="1" stop-color="#F59170"/>
    </linearGradient>
    <linearGradient gradientUnits="userSpaceOnUse" x1="-819.2" x2="819.2" spreadMethod="pad" gradientTransform="matrix(0 0.29779052734375 -0.297210693359375 0 319.5 245)" id="gradient2">
      <stop offset="0" stop-color="#F69878"/>
      <stop offset="1" stop-color="#F59170"/>
    </linearGradient>
    <linearGradient gradientUnits="userSpaceOnUse" x1="-819.2" x2="819.2" spreadMethod="pad" gradientTransform="matrix(0 0.11151123046875 -0.11346435546875 0 321.5 386.05)" id="gradient3">
      <stop offset="0" stop-color="#F58865"/>
      <stop offset="1" stop-color="#F59373"/>
    </linearGradient>
    <linearGradient gradientUnits="userSpaceOnUse" x1="-819.2" x2="819.2" spreadMethod="pad" gradientTransform="matrix(0 0.157470703125 -0.1409912109375 0 816.95 894.95)" id="gradient4">
      <stop offset="0" stop-color="#195C86"/>
      <stop offset="1" stop-color="#124163"/>
    </linearGradient>
    <linearGradient gradientUnits="userSpaceOnUse" x1="-819.2" x2="819.2" spreadMethod="pad" gradientTransform="matrix(0 -0.030517578125 0.030517578125 0 658 810)" id="gradient5">
      <stop offset="0" stop-opacity="0"/>
      <stop offset="1" stop-opacity="0.10196078431372549"/>
    </linearGradient>
    <linearGradient gradientUnits="userSpaceOnUse" x1="-819.2" x2="819.2" spreadMethod="pad" gradientTransform="matrix(0 -0.030517578125 -0.030517578125 0 794 810)" id="gradient6">
      <stop offset="0" stop-opacity="0"/>
      <stop offset="1" stop-opacity="0.10196078431372549"/>
    </linearGradient>
    <linearGradient gradientUnits="userSpaceOnUse" x1="-819.2" x2="819.2" spreadMethod="pad" gradientTransform="matrix(0 0.1007080078125 -0.1007080078125 0 320.95 567)" id="gradient7">
      <stop offset="0" stop-color="#101010"/>
      <stop offset="1" stop-color="#252525"/>
    </linearGradient>
    <linearGradient gradientUnits="userSpaceOnUse" x1="-819.2" x2="819.2" spreadMethod="pad" gradientTransform="matrix(0 -0.1007080078125 -0.1007080078125 0 320.95 947)" id="gradient8">
      <stop offset="0" stop-color="#101010"/>
      <stop offset="1" stop-color="#252525"/>
    </linearGradient>
    <linearGradient gradientUnits="userSpaceOnUse" x1="-819.2" x2="819.2" spreadMethod="pad" gradientTransform="matrix(0 0.1007080078125 -0.1007080078125 0 320.95 567)" id="gradient9">
      <stop offset="0" stop-color="#6386A3"/>
      <stop offset="1" stop-color="#B7CDDC"/>
    </linearGradient>
    <linearGradient gradientUnits="userSpaceOnUse" x1="-819.2" x2="819.2" spreadMethod="pad" gradientTransform="matrix(0 -0.1007080078125 -0.1007080078125 0 320.95 947)" id="gradient10">
      <stop offset="0" stop-color="#6386A3"/>
      <stop offset="1" stop-color="#B7CDDC"/>
    </linearGradient>
    <linearGradient gradientUnits="userSpaceOnUse" x1="-819.2" x2="819.2" spreadMethod="pad" gradientTransform="matrix(0 -0.019287109375 0.019287109375 0 320.7 882.75)" id="gradient11">
      <stop offset="0" stop-opacity="0"/>
      <stop offset="1" stop-opacity="0.6"/>
    </linearGradient>
  </defs>
  <g>
    <path stroke="none" fill="#FFFFFF" d="M0 490 L639 490 639 1024 0 1024 0 490"/>
    <path stroke="none" fill="#1A1A1A" d="M49 1024 L0 1024 0 490 49 490 49 1024"/>
    <path stroke="none" fill="#252525" d="M49 1024 L49 490 160 490 160 1024 49 1024 M576 490 L576 1024 548.95 1024 548.95 490 576 490"/>
    <path stroke="none" fill="#99B3C7" d="M576 490 L581 490 581 1024 576 1024 576 490 M496 490 L501 490 501 1024 496 1024 496 490"/>
    <path stroke="none" fill="#B7CEDD" d="M496 490 L496 1024 483 1024 483 490 496 490 M581 1024 L581 490 643 490 643 1024 581 1024 M501 1024 L501 490 548.95 490 548.95 1024 501 1024"/>
    <path stroke="none" fill="url(#gradient0)" d="M412.1 339.1 L462 308.9 478.95 123 507.95 12 507.95 0 639 0 639 490 367.95 490 367.95 474.65 395.2 472.05 Q416.55 383.8 412.1 339.1"/>
    <path stroke="none" fill="#85A3BA" d="M412.1 339.1 Q406.95 287.8 367.95 293.75 L367.95 279 Q362.65 245.7 341.45 233.55 320.25 221.4 320.6 192 L320.6 138.75 320.5 111 320 0 507.95 0 507.95 12 478.95 123 462 308.9 412.1 339.1"/>
    <path stroke="none" fill="#6688A5" d="M412.1 339.1 Q416.55 383.8 395.2 472.05 L367.95 474.65 367.95 293.75 Q406.95 287.8 412.1 339.1"/>
    <path stroke="none" fill="#6C8DA9" d="M387.6 224.7 Q387.6 237.65 378.45 246.65 369.3 255.95 356.35 255.95 343.3 255.95 334.15 246.65 325.15 237.65 325.15 224.7 325.15 211.65 334.15 202.5 343.3 193.5 356.35 193.5 369.3 193.5 378.45 202.5 387.6 211.65 387.6 224.7"/>
    <path stroke="none" fill="#000000" fill-opacity="0.10196078431372549" d="M367.95 271.6 L367.95 313.05 304.1 313.05 304.1 109 320.55 109 320.6 122.95 320.6 176.2 Q320.25 205.55 341.45 221.45 362.65 237.35 367.95 271.6"/>
    <path stroke="none" fill="#252525" d="M824 326 L824 134 1024 134 1024 326 824 326 M1024 524 L1024 764 864.95 764 864.95 524 1024 524"/>
    <path stroke="none" fill="#F59574" d="M864.95 764 L639 764 639 524 824 524 864.95 524 864.95 764"/>
    <path stroke="none" fill="url(#gradient1)" d="M1024 326 L1024 524 864.95 524 824 524 824 326 1024 326"/>
    <path stroke="none" fill="url(#gradient2)" d="M367.95 474.65 L367.95 490 0 490 0 0 320 0 320.5 111 320.6 138.75 320.6 192 Q320.25 221.4 341.45 233.55 362.65 245.7 367.95 279 L367.95 293.75 367.25 293.85 320.2 299.55 320 299.55 Q297.75 299.2 282.15 295.2 199.85 273.75 247.8 472.05 L321.5 479 367.95 474.65"/>
    <path stroke="none" fill="url(#gradient3)" d="M367.95 474.65 L321.5 479 247.8 472.05 Q199.85 273.75 282.15 295.2 297.75 299.2 320 299.55 L320.2 299.55 367.25 293.85 367.95 293.75 367.95 474.65"/>
    <path stroke="none" fill="#165279" d="M611 999 L611 995 1024 995 1024 999 611 999"/>
    <path stroke="none" fill="url(#gradient4)" d="M611 999 L1024 999 1024 1024 611 1024 611 999 M611 995 L611 764 1024 764 1024 995 611 995"/>
    <path stroke="none" fill="#000000" fill-opacity="0.10196078431372549" d="M1024 785 L1024 801 613 801 613 785 1024 785"/>
    <path stroke="none" fill="url(#gradient5)" d="M683 785 Q683 835 633 835 L633 785 683 785"/>
    <path stroke="none" fill="url(#gradient6)" d="M769 785 L819 785 819 835 Q769 835 769 785"/>
    <path stroke="none" fill="#577A98" d="M320.35 498 L320.35 490 483 490 483 498 320.35 498 M483 1016 L483 1024 335.5 1024 335.5 1016 483 1016"/>
    <path stroke="none" fill="#1E1E1E" d="M320.35 490 L320.35 498 160 498 160 490 320.35 490 M160 1016 L335.5 1016 335.5 1024 160 1024 160 1016"/>
    <path stroke="none" fill="url(#gradient7)" d="M160 498 L320.35 498 320.35 655 160 655 160 498"/>
    <path stroke="none" fill="url(#gradient8)" d="M160 655 L320.35 655 320.35 798.95 339.5 818.1 339.5 859 339.5 893.95 307 926.45 307 972.45 335.5 1000.95 335.5 1016 160 1016 160 655"/>
    <path stroke="none" fill="url(#gradient9)" d="M320.35 498 L483 498 483 655 320.35 655 320.35 498"/>
    <path stroke="none" fill="#B7CEDD" d="M320.35 655 L483 655 483 859 339.5 859 339.5 818.1 320.35 798.95 320.35 655"/>
    <path stroke="none" fill="url(#gradient10)" d="M339.5 859 L483 859 483 1016 335.5 1016 335.5 1000.95 307 972.45 307 926.45 339.5 893.95 339.5 859"/>
    <path stroke="none" fill="#E2472B" d="M0 315.5 L0 0 320 0 320 151.5 Q241.35 156.6 235.2 200.3 233.05 215.45 229.2 219.65 218.4 231.45 200.1 219.9 177.35 205.55 142.45 258.05 119.25 293 0 315.5"/>
    <path stroke="none" fill="#F47B66" d="M182.3 220.7 L182.55 220.6 183.25 220.15 183.45 220.05 187.75 218.55 188.05 218.5 188.2 218.45 190.35 218.15 190.5 218.15 190.85 218.15 191.7 218.25 Q192.1 218.25 192.25 218.85 192.6 219.35 192.2 219.75 192.15 220.2 191.45 220.3 L189.25 221.3 189.05 221.4 188.35 221.8 188.25 221.85 Q188.1 221.95 187.9 222 L187.5 222.3 187.4 222.35 185.2 223.85 183.05 225.8 183.1 225.7 182.75 226.1 182.6 226.25 180.9 228.3 180.8 228.35 180.7 228.45 180.15 229.35 180.1 229.4 180.05 229.5 179.85 229.8 179.65 230.2 179.6 230.35 179.5 230.55 179.4 230.75 179.35 230.8 178.6 232.65 178.3 233.5 177.85 235.75 177.75 237.5 177.75 237.6 177.7 237.95 177.75 239.2 178.1 241.4 178.25 242.15 178.35 242.45 178.4 242.6 178.4 242.7 178.95 244.2 180 246.25 180.05 246.35 180.1 246.45 180.4 246.95 180.95 247.65 181 247.75 181.35 248.2 181.45 248.3 181.55 248.4 182.1 249.05 182.2 249.15 182.35 249.3 182.45 249.35 183.45 250.4 183.55 250.5 183.85 250.8 184.25 251.1 184.35 251.2 184.4 251.25 184.55 251.35 187.15 253.3 188.45 254 188.5 254.05 189.3 254.45 189.45 254.5 189.8 254.65 189.95 254.75 190.2 254.8 190.4 254.9 191.35 255.25 191.45 255.3 191.8 255.45 191.9 255.45 194.25 256.2 194.65 256.45 194.7 256.5 195 257.2 194.7 257.9 194.6 258 194 258.3 193 258.4 192.85 258.4 189.3 258.15 189 258.1 188.9 258.1 188.4 258 188.3 258 187.3 257.75 187.15 257.7 186.6 257.55 186.45 257.5 184.55 256.8 184.4 256.7 184.15 256.55 183.05 256.05 182.95 256 180.4 254.45 180.25 254.35 176.95 251.4 176.8 251.2 176.7 251.05 176.75 251.2 175.95 250.3 175.9 250.15 175.75 249.95 175.55 249.75 175.45 249.6 174.65 248.4 174.6 248.4 Q173.75 247 173.25 245.7 L173.2 245.65 172.5 243.75 172.5 243.65 172.3 242.75 Q171.85 241.2 171.8 239.7 L171.75 239.35 171.75 239.2 171.75 236.95 171.8 236.65 171.8 236.5 172.25 233.55 172.3 233.5 Q172.6 232 173.25 230.55 L173.3 230.35 173.35 230.25 173.65 229.6 173.75 229.45 173.85 229.3 173.75 229.4 174.15 228.6 174.25 228.5 174.45 228.2 174.35 228.3 174.5 228 174.6 227.9 174.9 227.45 175 227.3 175.05 227.3 175.4 226.75 175.5 226.6 175.55 226.6 175.6 226.5 175.65 226.4 176.9 224.9 177.05 224.8 177.3 224.6 177.6 224.3 177.8 224.05 177.9 223.9 179.05 222.9 179.2 222.8 179.4 222.7 179.45 222.6 179.55 222.5 179.95 222.15 180.1 222.05 182.1 220.75 182.3 220.7 M194.55 237.6 Q195 240.65 194.2 242.95 193.3 245.3 191.6 245.6 189.95 245.85 188.45 243.8 186.95 241.9 186.5 238.85 186 235.75 186.9 233.4 187.7 231.1 189.35 230.85 191.05 230.55 192.6 232.55 194.05 234.5 194.55 237.6 M190.05 254.8 L190.1 254.85 190.1 254.8 190.05 254.8"/>
    <path stroke="none" fill="#F47D59" d="M330.15 242.3 Q332.05 242.7 332.05 244.6 L331.95 245.3 Q330.05 251.45 321.2 251.45 312.35 251.45 310.5 245.3 L310.45 244.6 Q310.45 242.6 312.35 242.3 321.3 244.35 330.15 242.3"/>
    <path stroke="none" fill="#220F0F" d="M279.3 229.1 L279.3 227.6 Q278.4 227 277.65 226.25 275.25 223.85 275.25 220.45 L275.25 212.3 287.45 212.3 Q290.8 212.3 293.2 214.7 295.6 217.1 295.6 220.45 L295.6 229.1 Q295.6 232.5 293.2 234.9 290.8 237.3 287.45 237.3 284.1 237.3 281.7 234.9 279.3 232.5 279.3 229.1"/>
    <path stroke="none" fill="#F45151" d="M301.85 255.1 Q303 254.75 303.9 255.45 306.25 257.8 308.2 257.2 L310.25 256.4 314.15 256.6 315 257.2 315.95 257.75 Q317 258.3 318.9 258.05 320.7 257.8 322.5 258.85 323.45 259.4 324.05 260.45 325.3 261.95 327.95 261.2 329.5 260.75 330.3 261.45 331.25 262.65 330.3 264.3 328.65 267.5 324.05 269.45 318.85 271.6 312.95 270.35 307 269.15 303.25 265.1 299.9 261.35 300.05 257.55 300.1 255.7 301.85 255.1"/>
    <path stroke="none" fill="#E2472B" d="M297.4 214.4 Q293.4 211.2 284.45 208.95 L277.55 207.4 Q273.65 206.9 270.5 207.45 268.7 207.85 267.65 206.25 266.65 204.6 267.9 203.25 270.3 200.7 275.25 199.85 280.55 198.95 286.7 200.5 292.8 202.15 297 205.5 301 208.75 301.8 212.05 302.15 213.9 300.55 214.75 298.85 215.65 297.4 214.4"/>
    <path stroke="none" fill="#220F0F" d="M368.3 224.7 Q368.3 229.65 364.8 233.1 361.3 236.65 356.35 236.65 351.35 236.65 347.85 233.1 344.4 229.65 344.4 224.7 344.4 219.7 347.85 216.2 351.35 212.75 356.35 212.75 361.3 212.75 364.8 216.2 368.3 219.7 368.3 224.7"/>
    <path stroke="none" fill="#FFFFFF" d="M360.35 224.65 Q360.35 226.3 359.15 227.5 358 228.65 356.3 228.65 354.6 228.65 353.45 227.5 352.25 226.3 352.25 224.65 352.25 222.95 353.45 221.75 354.6 220.6 356.3 220.6 358 220.6 359.15 221.75 360.35 222.95 360.35 224.65"/>
    <path stroke="none" fill="url(#gradient11)" d="M374.1 881.3 Q366.25 890.2 352.25 895.5 337.75 900.85 320.9 900.85 303.75 900.85 289.2 895.3 275.1 889.95 267.3 880.85 274.8 884.9 283.35 885.6 291.9 886.25 299.95 883.4 310.3 879.75 321.15 879.75 332.05 879.75 342.35 883.4 350.2 886.15 358.5 885.6 366.7 885.05 374.1 881.3"/>
    <path stroke="none" fill="#D7CBCB" d="M313.9 166.25 Q313.85 165.3 314.4 164.7 315.05 164 315.9 164.1 L324 164.05 Q324.85 164.05 325.55 164.65 326.1 165.25 326.1 166.2 326.05 167.05 325.55 167.7 324.85 168.35 324 168.3 L315.9 168.35 Q315.05 168.35 314.45 167.75 313.9 167.1 313.9 166.25"/>
    <path stroke="none" fill="#D7CBCB" d="M314.55 194.25 Q314.5 193.3 315.05 192.7 315.7 192 316.55 192.1 L324.65 192.05 Q325.5 192.05 326.2 192.65 326.75 193.25 326.75 194.2 L326.2 195.7 Q325.5 196.35 324.65 196.3 L316.55 196.35 Q315.7 196.35 315.1 195.75 314.55 195.1 314.55 194.25"/>
    <path stroke="none" fill="#D7CBCB" d="M359.25 267.4 Q358.9 266.55 359.25 265.75 359.75 264.95 360.6 264.8 L368.45 262.65 370.1 262.9 Q370.75 263.3 371 264.2 371.2 265.05 370.85 265.8 370.3 266.65 369.5 266.8 L361.65 268.95 360.1 268.75 Q359.45 268.25 359.25 267.4"/>
    <path stroke="none" fill="#E2472B" d="M281.65 116.6 Q281.6 115.5 282.05 114.75 282.65 113.85 283.55 113.5 L285.55 113.3 Q318.25 121.25 338.85 151.1 339.6 152.1 339.4 153 339.4 153.95 338.75 154.8 338.1 155.65 337.15 156 L335.15 155.8 Q315.1 147.6 287.85 155.15 L285.95 155.05 284.45 153.95 Q283.85 153.15 283.75 152.2 L281.65 116.6"/>
    <path stroke="none" fill="#E2472B" d="M225.5 149.4 L259.3 160.65 Q260.25 161 260.85 161.75 261.45 162.6 261.5 163.5 261.55 164.45 261.1 165.35 246.75 189.7 249.5 211.2 249.7 212.2 249.2 213.15 248.6 214.05 247.65 214.4 L245.7 214.6 Q244.75 214.55 244 213.55 220.5 185.95 221.3 152.25 221.35 151.15 222 150.4 222.55 149.6 223.6 149.3 L225.5 149.4"/>
    <path stroke="none" fill="#131313" d="M320.35 779.7 L281.5 770.3 273.25 743.2 279.5 721.95 320.35 716.55 320.35 779.7"/>
    <path stroke="none" fill="#7998B2" d="M320.35 779.7 L320.35 716.55 361.2 721.95 367.45 743.2 359.2 770.3 320.35 779.7"/>
    <path stroke="none" fill="#577A98" d="M479.75 233.05 L444.35 268.45 Q443.5 269.3 443.5 270.5 443.5 271.7 444.35 272.55 445.2 273.4 446.4 273.4 L446.5 273.4 Q447.65 273.35 448.45 272.55 L483.85 237.15 Q484.7 236.3 484.7 235.1 484.7 233.9 483.85 233.05 483 232.2 481.8 232.2 480.6 232.2 479.75 233.05 M433.75 257.85 L469.15 222.45 Q474.4 217.2 481.8 217.2 489.2 217.2 494.45 222.45 499.65 227.65 499.7 235.1 499.7 242.5 494.45 247.75 L459.05 283.15 Q453.8 288.4 446.4 288.4 438.95 288.35 433.75 283.15 428.5 277.9 428.5 270.5 428.5 263.1 433.75 257.85"/>
    <path stroke="none" fill="#A5BED0" d="M479.75 233.05 Q480.6 232.2 481.8 232.2 483 232.2 483.85 233.05 484.7 233.9 484.7 235.1 484.7 236.3 483.85 237.15 L448.45 272.55 Q447.65 273.35 446.5 273.4 L446.4 273.4 Q445.2 273.4 444.35 272.55 443.5 271.7 443.5 270.5 443.5 269.3 444.35 268.45 L479.75 233.05"/>
    <path stroke="none" fill="#E2472B" d="M264.6 117.35 Q264.15 116.35 264.3 115.5 264.5 114.4 265.2 113.75 265.9 113 267 112.85 300.3 108.25 330.5 128.45 331.55 129.1 331.7 130 332 130.9 331.75 131.95 331.45 132.95 330.7 133.6 L328.75 134.15 Q307.1 133.9 284.5 150.9 283.7 151.45 282.75 151.5 281.8 151.55 280.9 151.05 280.1 150.55 279.65 149.65 L264.6 117.35"/>
    <path stroke="none" fill="#000000" fill-opacity="0.10196078431372549" d="M793.7 933.6 L793.7 933.5 794.65 933.45 Q795.8 933.45 796.55 934.2 797.3 935 797.3 936.1 L796.7 939.6 Q796.3 941.6 794.3 941.75 L791.5 942 Q790.55 942.2 789.7 941.5 788.8 940.9 788.65 939.9 L788.2 937.9 Q788.05 936.95 788.55 936.1 789.1 935.25 790 934.9 L793.7 933.6 M763.4 936.8 Q764.35 936.25 765.9 936.25 L773.2 936.85 Q775.1 937.05 776.35 938.35 777.65 939.6 777.75 941.5 L778 945.2 Q778.1 947.1 776.9 948.55 775.7 950.1 773.8 950.35 L768.65 951.2 Q767 951.45 765.55 950.7 764.1 949.9 763.4 948.4 L761 943.4 Q760.15 941.5 760.85 939.6 761.5 937.65 763.4 936.8 M664.9 947.45 L665.45 948.65 666.05 952.5 Q666.2 953.45 665.6 954.3 665.1 955.15 664.15 955.4 L662.25 956 660.3 955.85 Q659.45 955.4 659 954.45 L657.95 951.9 Q657.2 950 658.85 948.8 L661.15 946.9 Q662.1 946.25 663.1 946.4 664.25 946.55 664.9 947.45 M664 841.55 Q666.3 842.4 666.3 844.85 666.3 846.05 665.6 846.95 L663.4 849.9 Q662.5 851 661.15 851.2 659.75 851.45 658.65 850.65 L655.4 848.5 Q654.35 847.85 654 846.65 653.65 845.45 654.2 844.3 L655.2 842 Q655.75 840.7 657 840.1 L659.5 840 664 841.55 M671.6 812.05 Q670.35 812.7 669.2 811.85 668.45 811.25 668.45 810.2 668.45 809.55 668.95 808.85 L671.2 806.2 Q671.7 805.5 672.55 805.4 673.4 805.35 674 805.85 L675.05 806.6 Q675.9 807.2 675.9 808.25 675.9 809.55 674.9 810.05 L671.6 812.05 M677.3 836 Q669.4 838.2 661.85 835.05 L656.7 832.8 Q653.95 831.7 653.95 828.6 L653.95 813.3 Q653.95 811.45 655.3 810.15 656.6 808.75 658.5 808.75 660.55 808.75 661.9 810.3 L666.05 815.05 Q667.05 816.15 668.6 816.5 670.05 816.85 671.55 816.15 L676 814 Q680.7 811.7 685.35 814.15 L686.45 814.7 Q689.05 816.05 690.6 818.55 692.15 821.05 692.15 823.95 692.15 827.5 690 830.3 687.85 833.15 684.4 834.1 L677.3 836 M769.6 851.25 Q768.2 850.85 767.95 849.45 L766.65 844.9 766.6 844.25 Q766.6 843.1 767.35 842.4 768.15 841.65 769.25 841.65 L770.2 841.8 776.1 844.25 Q776.95 844.55 777.4 845.45 777.85 846.3 777.65 847.25 L776.9 850.65 Q776.45 852.8 774.3 852.8 L773.45 852.65 769.6 851.25 M809.75 851.7 Q809.75 853.4 808.75 854.8 807.7 856.25 806.1 856.85 L794.4 860.95 792.6 861.25 Q790.35 861.25 788.8 859.7 787.2 858.05 787.2 855.8 787.2 854.45 787.9 853.25 L791.5 846.55 Q792.85 844.25 791.75 841.8 L790.95 840 Q790.35 838.55 789 837.6 787.6 836.65 786 836.65 784 836.65 782.55 837.95 781.1 839.15 779.1 839.15 776.35 839.15 774.65 836.75 L771.3 831.8 Q770.35 830.4 770.35 828.75 770.35 827.05 771.3 825.7 L779.55 813.5 Q780.65 811.95 782.4 811.45 L797 806.7 798.7 806.45 Q800.5 806.45 801.95 807.55 803.4 808.7 803.95 810.4 L809.5 830.5 809.75 831.95 809.75 851.7 M953.25 951.4 Q954.7 950.95 956 951.8 L963.2 956.55 Q966.15 958.4 967.65 961.6 969.2 964.7 968.95 968.2 L968.9 970.1 Q968.8 971.4 967.85 972.25 966.9 973.1 965.6 973 L964.4 973 Q963.1 972.95 962.25 972.05 961.4 971.15 961.4 969.85 L961.4 969.6 961.25 968.2 959.5 963.65 Q959.1 962.45 957.9 961.85 L955.55 961.75 954.8 962.05 952.55 961.95 Q951.45 961.5 950.95 960.5 L949.05 956.6 Q948.7 956 948.7 955.25 948.7 952.95 950.85 952.25 L953.25 951.4 M960.1 910.7 L959.5 910.75 Q958.5 910.75 957.7 910.1 957.05 909.4 956.85 908.45 L956.35 904.4 Q956.15 903.05 957.1 902.1 L960.65 898.9 Q961.5 898.25 962.45 898.25 963.45 898.25 964.25 898.9 964.95 899.6 965 900.65 L965.55 907 Q965.7 907.85 965.1 908.7 964.6 909.5 963.65 909.75 L960.1 910.7 M887.3 934.9 L887.65 934.9 Q888.35 934.9 888.75 935.35 889.3 935.85 889.3 936.45 889.3 937.05 888.75 937.55 L885.95 940.8 Q885.35 941.4 884.75 941.4 884.15 941.4 883.6 940.9 L881.1 938.4 Q880.7 938 880.7 937.3 880.7 936 882 935.75 L887.3 934.9 M864.1 889.3 L862.25 886.55 Q861.8 885.85 861.8 885.25 861.8 884.4 862.4 883.8 862.9 883.2 863.8 883.05 L869.35 882.35 869.6 882.25 Q870.55 882.25 871.15 882.95 871.85 883.65 871.85 884.5 871.85 885.45 871.15 886.15 L867.45 889.65 Q866.85 890.25 865.95 890.25 864.8 890.25 864.1 889.3 M838.95 863.45 Q840.15 860.6 843 859.4 845.9 858.15 848.85 859.15 L858.8 862.7 Q861.2 863.55 862.6 865.5 864.05 867.6 864.05 870.05 864.05 872.75 862.5 874.8 L857.5 881.4 Q855.6 883.9 852.55 884.4 849.45 884.9 846.85 883.2 L839.55 878.25 Q837.25 876.7 836.5 874 835.7 871.25 836.75 868.7 L838.95 863.45 M849.8 855.55 Q848.85 855.45 848.15 854.7 847.45 854 847.45 853.05 L847.45 849.45 Q847.45 848.35 848.25 847.55 849 846.8 850.15 846.8 L850.4 846.8 854.5 847.3 Q855.9 847.5 856.55 848.6 L858.8 852.75 859.05 854 Q859.05 855.15 858.3 855.9 857.6 856.7 856.5 856.7 L849.8 855.55 M998.6 971.75 L995.75 969.15 Q994.9 968.3 995.6 967.25 L998.75 962.3 Q999 961.75 999.6 961.6 L1000.15 961.6 Q1001.6 961.6 1001.6 963.05 L1001.35 963.75 1000.3 965.55 1000.15 966.25 Q1000.15 967.45 1001.35 967.7 1002.45 967.85 1002.45 969.05 L1002.1 970.1 1000.65 971.65 998.6 971.75 M994.3 881.4 Q995.3 882.2 995.3 883.3 995.3 884 994.7 884.75 L992.5 887.35 Q991.7 888.1 990.85 888.1 989.4 888.1 988.8 886.65 L986.75 881.5 986.55 880.65 Q986.55 879.75 987.25 879.1 987.95 878.4 988.8 878.4 989.25 878.4 989.9 878.75 L994.3 881.4 M361.9 900.65 L364.05 904.75 364.4 906.05 Q364.4 907.15 363.65 907.95 362.85 908.7 361.75 908.7 L355.05 907.6 Q354.2 907.5 353.5 906.75 352.9 905.95 352.8 905 L352.8 901.4 Q352.8 900.3 353.6 899.5 354.35 898.75 355.45 898.75 L355.8 898.85 359.85 899.25 Q361.4 899.45 361.9 900.65 M380.35 847.15 Q380.9 846.2 381.85 846.2 382.6 846.2 383.1 846.9 L384.15 848.5 384.3 849.4 Q384.3 850.65 382.95 850.85 L381.25 851 381.15 851 Q380.55 851 380.05 850.6 379.6 850.15 379.6 849.45 L379.7 848.95 380.35 847.15 M362 866.55 L362.1 867 Q362.1 867.75 361.55 868.35 360.95 868.85 360.2 868.85 359.5 868.85 358.75 868.25 358.2 867.75 358.2 866.9 358.2 866.1 358.8 865.6 359.35 865 360.1 865 361.65 865 362 866.55 M385.25 856.25 Q387.65 856.25 389.3 857.95 390.95 859.6 390.95 861.9 390.95 865.5 387.6 867.05 L385.35 868.1 383.7 868.5 373.5 869.8 Q371.7 870 370.15 869.15 368.5 868.2 367.75 866.55 L366.1 863.1 Q364.9 860.55 361.9 859.95 L361.3 859.85 Q359.25 859.5 357.95 857.95 356.6 856.35 356.6 854.25 356.6 852.9 357.2 851.8 L358.3 849.45 Q359.95 846.3 363.35 846.3 364.75 846.3 366.1 846.95 L371.8 850.05 Q373.7 851 374.35 853.05 L374.55 853.5 Q375.2 855.45 377.1 856.5 378.9 857.55 380.95 857.1 L385.25 856.25 M1008.7 980.5 L1024 980.5 1024 1024 626.55 1024 626.55 981.7 630.3 981.1 639.25 972.7 Q639.85 972.05 640.7 972.05 641.55 972 642.15 972.5 L645.1 974.9 Q645.8 975.4 646.65 975.35 647.5 975.25 648.1 974.65 L656.4 965.2 Q657.45 963.9 659 964.7 L666.1 968.2 Q667.6 968.9 668.7 967.8 L678.05 957.55 Q679.1 956.45 678.5 955.15 L674.35 946.3 Q673.85 945.2 674.55 944.15 L680.9 935.05 Q681.6 934.2 682.7 934.2 683.8 934.2 684.5 935.05 L691.2 944.35 Q691.9 945.1 691.55 946.25 L688.55 956.1 Q688.35 956.8 688.6 957.65 L693.15 967.85 701.85 980.15 Q702.55 981 703.65 981 L748.55 981 749.85 980.65 755.5 976.55 758.25 976.65 761.8 979.8 Q762.4 980.4 763.15 980.4 L764.6 979.95 769.15 976.35 Q770 975.7 770 974.65 770 973.55 769.15 972.85 L762.4 967.8 Q761.45 967.25 761.45 966.05 761.45 965.3 761.95 964.8 L765.65 959.8 Q766.35 958.85 767.35 958.85 768.05 958.85 768.8 959.45 L772.25 962.45 Q773.7 963.65 775.15 962.45 L780.65 957.8 Q781.85 956.9 783.05 957.55 L788.75 960.65 Q789.5 961.1 789.75 961.85 790.1 962.7 789.7 963.55 L786.85 969.15 Q786.5 970 786.75 970.85 787 971.75 787.8 972.05 L791.5 974.15 792.6 974.4 Q793.95 974.4 794.6 973.1 L798.8 963.4 Q799.3 962.35 798.5 961.25 L792.95 953.8 Q792.45 953.25 792.45 952.5 792.45 951.05 793.7 950.45 L803.35 946.15 805.05 946.05 Q805.9 946.3 806.25 947.15 L809.5 954.15 809.75 954.9 811.3 972.05 811.3 972.75 810.1 977.85 Q810.05 978.6 810.35 979.35 810.8 980.05 811.6 980.3 L813.4 981 814.15 981.2 828.05 981.2 Q828.9 981.2 829.45 980.65 L833.9 976.8 Q834.5 976.3 835.35 976.3 836.2 976.3 836.8 976.9 L838.7 978.7 Q839.3 979.3 839.4 979.9 L840.35 984.95 Q840.7 986.75 842.5 986.75 L842.9 986.75 847.55 985.75 Q849.25 985.45 849.25 983.6 L849.25 979.45 Q849.25 978.15 850.2 977.65 L855.1 974.2 Q856.05 973.55 856.05 972.4 L856.05 963.05 Q856.05 962.2 856.65 961.6 857.15 961 858.05 960.9 L865.05 960.15 Q866.35 959.9 867.15 961.15 L870.55 966.85 Q871.15 967.95 872.45 967.8 L873.9 967.8 Q874.6 967.8 875.2 967.35 875.9 966.85 875.95 966.15 L877.7 959.1 Q878.05 957.9 877.1 957.15 L869.2 949.05 Q868.5 948.4 867.45 948.4 L857.45 949.05 Q856.65 949.15 855.95 948.65 855.35 948.1 855.2 947.25 L853.9 939.9 853.8 939.55 Q853.8 938.65 854.4 938 855.1 937.4 855.95 937.4 L867.65 937.15 Q868.6 937.15 869.1 937.65 L879.85 947.35 880.2 947.6 887.4 957.2 Q888 957.8 887.8 958.95 L885.05 972.05 882.4 977.75 Q881.8 979.2 882.75 980.25 L888.6 986.65 Q889.3 987.35 890.15 987.35 891.1 987.45 891.7 986.85 L897.45 981.7 Q898.15 981.2 898.9 981.2 L945.6 981.2 Q946.45 981.2 947.25 980.4 L952.4 974.55 Q953.75 973.3 955.2 974.15 L960.65 977.65 961.3 978.35 964.75 984 Q965.45 985.3 964.65 986.5 L964.15 987.2 Q963.7 987.8 963.7 988.45 963.7 990.1 965.35 990.55 L974.55 992.95 Q975.85 993.35 976.8 992.25 L980.1 988.3 Q980.8 987.25 980.45 986.15 L977.1 976.35 976.5 964.45 Q976.5 962.9 977.7 962.35 L985.3 958.85 986.8 958.75 Q987.7 959 988.1 959.7 L990.6 964.25 990.85 965.65 989.3 975.35 Q989.15 976.1 989.55 976.8 L992.25 981.5 Q992.9 982.9 994.65 982.55 L1001.4 981.1 Q1002.45 980.85 1002.95 979.8 1003.5 978.6 1004.95 978.6 1005.9 978.6 1006.5 979.2 L1007.15 979.9 Q1007.75 980.5 1008.7 980.5 M515.45 721 L515.7 721 Q516.65 721 517.25 721.6 517.95 722.3 517.95 723.15 517.95 724.1 517.25 724.8 L513.65 728.3 Q513.05 728.9 512.1 728.9 510.9 728.9 510.2 727.95 L508.3 725.2 Q507.95 724.6 507.95 723.95 507.95 721.95 509.85 721.7 L515.45 721 M495.85 694.2 Q494.9 694.15 494.25 693.35 493.65 692.7 493.65 691.75 L493.65 688.15 Q493.65 687 494.4 686.25 495.1 685.45 496.2 685.45 L496.55 685.45 500.65 686 Q502.05 686.15 502.75 687.25 L504.85 691.4 Q505.2 692 505.2 692.7 505.2 693.8 504.45 694.55 503.65 695.35 502.55 695.35 L502.2 695.25 495.85 694.2 M567.75 659.6 L567.75 648.45 610.65 648.45 610.65 815.4 568.35 815.4 567.75 811.6 559.25 802.65 Q558 801.1 559.15 799.75 L561.55 796.85 Q562.05 796.15 561.95 795.3 561.9 794.4 561.3 793.8 L551.85 785.5 Q550.55 784.45 551.35 782.9 L554.75 775.95 Q555.55 774.4 554.35 773.4 L544.05 763.95 Q542.85 762.9 541.6 763.6 L532.8 767.65 Q531.65 768.25 530.65 767.45 L521.55 761.1 Q520.65 760.4 520.65 759.3 520.65 758.2 521.55 757.5 L530.8 750.8 Q531.6 750.1 532.7 750.45 L542.55 753.45 544.1 753.4 554.05 749.1 566.7 740.15 Q567.65 739.45 567.65 738.35 L567.65 725.3 567.2 724 563.1 718.35 Q562.05 716.8 563.25 715.6 L566.45 712.1 Q567.65 710.8 566.5 709.25 L562.9 704.7 Q562.3 703.85 561.2 703.85 560 703.85 559.4 704.7 L554.4 711.5 Q553.75 712.35 552.6 712.35 551.75 712.35 551.35 711.9 L546.35 708.2 Q545.4 707.55 545.4 706.4 545.4 705.65 546 705.05 L549 701.5 Q550.2 700.15 549 698.7 L544.3 693.2 Q543.35 691.9 544.05 690.7 L547.1 685.05 Q547.55 684.25 548.4 684 L550.05 684.1 555.7 686.9 557.35 687 Q558.2 686.75 558.6 686 L560.7 682.3 560.95 681.15 Q560.95 679.8 559.65 679.2 L549.95 675 Q548.9 674.45 547.8 675.25 L540.35 680.9 539.05 681.35 Q537.65 681.35 537.05 680.05 L532.7 670.45 Q532.35 669.6 532.6 668.7 532.95 667.95 533.7 667.5 L540.75 664.25 541.45 664 558.6 662.45 559.3 662.55 564.4 663.65 565.9 663.5 Q566.6 663.05 566.85 662.3 L567.55 660.4 567.75 659.6 M504.85 701.35 Q507.3 702.2 508.65 704.25 510.1 706.25 510.1 708.75 510.1 711.4 508.55 713.45 L503.6 720.05 Q501.7 722.55 498.6 723.05 495.5 723.6 492.95 721.85 L485.65 716.9 Q483.3 715.35 482.55 712.7 481.7 709.95 482.8 707.35 L485.05 702.1 Q486.25 699.3 489.1 698.1 492 696.8 494.9 697.85 L504.85 701.35 M339.95 576.6 Q340.6 578.55 338.75 579.75 L333.25 582.95 Q332.65 583.3 331.95 583.3 330.85 583.3 330.05 582.5 329.3 581.75 329.3 580.65 L329.3 580.3 329.9 575.65 Q330.15 574.35 331.35 573.65 L334.95 571.8 Q335.65 571.45 336.15 571.45 338.15 571.45 338.65 573.25 L339.95 576.6 M371 609.4 Q370.65 611.35 369.15 612.75 367.6 614.1 365.6 614.1 L364.65 614.05 349.55 611.35 Q347.65 610.95 346.45 609.65 L336.6 598.75 Q335.45 597.55 335.3 595.9 335.05 594.2 335.7 592.75 L338.3 587.4 Q339.85 584.3 343.2 584.3 344.75 584.3 346.05 585.1 347.3 585.85 348.85 585.85 350.65 585.85 352.1 584.75 353.65 583.65 354.1 581.85 L354.6 579.95 Q355.3 577.45 353.65 575.3 L349.1 569.2 Q348.1 567.85 348.1 566.05 348.1 563.8 349.65 562.15 351.25 560.55 353.5 560.55 L354.6 560.6 366.7 563.1 Q368.45 563.55 369.55 564.75 370.75 566.05 371 567.75 L373.75 587.25 Q373.95 587.9 373.75 588.7 L371 609.4 M356 520.5 Q355.55 520.95 354.95 520.95 353.75 520.95 353.4 519.85 L352.9 517.95 352.9 517.5 Q352.9 516.9 353.35 516.4 353.85 515.95 354.45 515.95 L356.75 516.85 Q357.8 517.1 357.8 518.2 357.8 519 357.3 519.3 L356 520.5 M383.65 518.8 Q385 520.5 385 522.85 385 525.4 383.3 527.3 381.65 529.2 379.15 529.35 376.75 529.6 375.15 531.35 373.5 532.95 373.25 535.3 L372.65 542.15 Q372.4 544.8 370.35 546.55 368.35 548.25 365.7 548.1 L362 547.9 Q360 547.75 358.4 546.55 356.75 545.35 356.15 543.45 L353.65 535.7 Q353.05 534 353.5 532.2 353.95 530.4 355.2 529.1 L370.25 513.75 Q372.2 511.75 374.95 511.75 378.05 511.75 380.1 514.25 L383.65 518.8 M152.3 170.7 L152 171.45 152 168.1 Q152.5 168.8 152.5 169.75 L152.3 170.7 M356.7 156.8 Q358.5 157.15 358.5 158.85 L358.65 164 Q358.65 164.95 358.05 165.55 357.45 166.15 356.5 166.15 355.9 166.15 355.3 165.75 L352.2 163.5 Q351.35 162.9 351.35 161.8 L351.45 158.45 Q351.45 157.6 352.05 157 352.65 156.4 353.5 156.4 L353.85 156.4 356.7 156.8 M420.9 140.25 Q422.95 141.6 423.9 144 424.75 146.25 424.35 148.75 L422.1 160.75 Q421.5 163.7 419.2 165.65 416.85 167.65 413.85 167.65 410.85 167.65 408.35 165.55 L401.05 159.3 395.5 157.05 391.7 156.9 Q389.75 157.4 388.45 158.95 L384.85 163.4 Q384 164.55 382.45 164.95 L371 167.7 Q368.2 168.4 366.45 166 L363.7 162.05 Q362.85 161.1 362.85 159.55 362.85 157.05 365 155.85 367.25 154.6 367.25 152 367.25 150.2 365.85 148.8 L364.75 147.9 Q363.3 146.4 361.15 146.7 L355.15 147.55 354.45 147.55 Q352.75 147.55 351.45 146.25 350.15 144.95 350.15 143.25 350.15 141.5 351.2 140.3 351.6 139.9 351.6 139.2 351.6 138.1 350.5 137.65 L347.25 136.35 Q342.75 134.75 338.55 132.1 L335.9 130.35 Q334.25 129.35 333.15 127.55 L332.3 126.15 Q331.15 124.1 331.15 121.85 331.15 119.45 332.45 117.5 333.75 115.4 335.9 114.3 L341.75 111.45 Q344.3 110.2 347.3 110.85 L393.1 121.6 Q394.55 121.85 396 122.9 L420.9 140.25 M608.4 188.4 Q609.45 186.95 611.35 186.95 612.8 186.95 613.9 188.05 614.95 189.1 614.95 190.65 L614.85 199.15 Q614.85 200.6 613.85 201.7 612.7 202.75 611.25 202.75 L605.1 201.65 Q603.7 201.35 602.95 200.35 602.05 199.4 602.05 198 602.05 196.9 602.75 195.8 L608.4 188.4 M550.9 202.15 Q548.9 197.35 550.8 192.55 552.6 187.7 557.25 185.5 L573.15 177.85 Q575.7 176.55 578.8 176.55 583.6 176.55 587.2 179.75 590.9 182.9 591.6 187.65 L593.55 201.2 Q594.35 206.35 591.35 210.55 588.25 214.85 583.2 215.8 L568.95 218.65 Q564.4 219.5 560.35 217.25 556.2 215 554.5 210.8 L550.9 202.15 M548.6 179.8 L544.35 175.7 Q543.1 174.4 543.1 172.5 543.1 170.35 544.7 169.15 L549.95 164.9 Q551.75 163.5 553.9 164.1 L561.35 166.35 Q562.85 166.75 563.7 167.9 564.55 169.1 564.55 170.55 564.55 172.7 562.75 174.05 L554.25 180.15 Q552.95 181.1 551.35 181 549.8 180.95 548.6 179.8"/>
    <path stroke="none" fill="#202020" d="M639 524 L639 0 1024 0 1024 134 824 134 824 524 639 524"/>
    <path stroke="none" fill="#202020" d="M666.55 151.3 L666.6 177.95 668.05 193.65 674.1 219.85 678.1 233.65 697.75 281.75 Q699.65 286.45 703.2 290 L703.8 290.55 Q709 295.7 716.05 297.3 L720.85 298.4 730.6 298.75 736.6 297.75 Q743.25 296.7 748.5 292.5 753.85 288.15 756.3 281.65 L779.4 218.8 798.15 169.6 798.25 155.9 800.65 151.3 806.45 140 821 144.55 821 326.95 646 326.95 646 151.3 666.55 151.3"/>
    <path stroke="none" fill="#FFFFFF" d="M666.55 151.3 L691.45 151.3 694.35 167.6 695.05 171.75 696.05 177.95 Q697.1 184.55 701.5 189.7 L709.85 199.25 Q713.2 203.15 717.9 205.3 722.55 207.4 727.75 207.4 735.95 207.4 742.35 202.35 L745.8 199.65 Q748.9 197.2 751.1 193.8 L755.9 186.3 Q757.2 184.15 758.1 181.85 L769.75 151.3 800.65 151.3 798.25 155.9 798.15 169.6 779.4 218.8 756.3 281.65 Q753.85 288.15 748.5 292.5 743.25 296.7 736.6 297.75 L730.6 298.75 720.85 298.4 716.05 297.3 Q709 295.7 703.8 290.55 L703.2 290 Q699.65 286.45 697.75 281.75 L678.1 233.65 674.1 219.85 668.05 193.65 666.6 177.95 666.55 151.3 M716.2 211.35 Q715.1 211.35 714.3 212.15 713.5 212.95 713.5 214.05 L713.5 214.1 Q713.5 215.2 714.3 215.95 715.1 216.75 716.2 216.75 L737.45 216.75 Q738.55 216.75 739.35 215.95 740.15 215.2 740.15 214.1 L740.15 214.05 Q740.15 212.95 739.35 212.15 738.55 211.35 737.45 211.35 L716.2 211.35"/>
    <path stroke="none" fill="#D7CBCB" d="M716.2 211.35 L737.45 211.35 Q738.55 211.35 739.35 212.15 740.15 212.95 740.15 214.05 L740.15 214.1 Q740.15 215.2 739.35 215.95 738.55 216.75 737.45 216.75 L716.2 216.75 Q715.1 216.75 714.3 215.95 713.5 215.2 713.5 214.1 L713.5 214.05 Q713.5 212.95 714.3 212.15 715.1 211.35 716.2 211.35 M769.75 151.3 L758.1 181.85 Q757.2 184.15 755.9 186.3 L751.1 193.8 Q748.9 197.2 745.8 199.65 L742.35 202.35 Q735.95 207.4 727.75 207.4 722.55 207.4 717.9 205.3 713.2 203.15 709.85 199.25 L701.5 189.7 Q697.1 184.55 696.05 177.95 L695.05 171.75 694.35 167.6 691.45 151.3 769.75 151.3"/>
    <path stroke="none" fill="#D7CBCB" d="M769.75 326.3 L758.1 356.85 Q757.2 359.15 755.9 361.3 L751.1 368.8 Q748.9 372.2 745.8 374.65 L742.35 377.35 Q735.95 382.4 727.75 382.4 722.55 382.4 717.9 380.3 713.2 378.15 709.85 374.25 L701.5 364.7 Q697.1 359.55 696.05 352.95 L695.05 346.75 694.35 342.6 691.45 326.3 769.75 326.3 M716.2 386.35 L737.45 386.35 Q738.55 386.35 739.35 387.15 740.15 387.95 740.15 389.05 L740.15 389.1 Q740.15 390.2 739.35 390.95 738.55 391.75 737.45 391.75 L716.2 391.75 Q715.1 391.75 714.3 390.95 713.5 390.2 713.5 389.1 L713.5 389.05 Q713.5 387.95 714.3 387.15 715.1 386.35 716.2 386.35"/>
    <path stroke="none" fill="#FFFFFF" d="M716.2 386.35 Q715.1 386.35 714.3 387.15 713.5 387.95 713.5 389.05 L713.5 389.1 Q713.5 390.2 714.3 390.95 715.1 391.75 716.2 391.75 L737.45 391.75 Q738.55 391.75 739.35 390.95 740.15 390.2 740.15 389.1 L740.15 389.05 Q740.15 387.95 739.35 387.15 738.55 386.35 737.45 386.35 L716.2 386.35 M691.45 326.3 L694.35 342.6 695.05 346.75 696.05 352.95 Q697.1 359.55 701.5 364.7 L709.85 374.25 Q713.2 378.15 717.9 380.3 722.55 382.4 727.75 382.4 735.95 382.4 742.35 377.35 L745.8 374.65 Q748.9 372.2 751.1 368.8 L755.9 361.3 Q757.2 359.15 758.1 356.85 L769.75 326.3 800.65 326.3 798.25 330.9 798.15 344.6 779.4 393.8 756.3 456.65 Q753.85 463.15 748.5 467.5 743.25 471.7 736.6 472.75 L730.6 473.75 720.85 473.4 716.05 472.3 Q709 470.7 703.8 465.55 L703.2 465 Q699.65 461.45 697.75 456.75 L678.1 408.65 674.1 394.85 668.05 368.65 666.6 352.95 666.55 326.3 691.45 326.3"/>
    <path stroke="none" fill="#202020" d="M666.55 326.3 L666.6 352.95 668.05 368.65 674.1 394.85 678.1 408.65 697.75 456.75 Q699.65 461.45 703.2 465 L703.8 465.55 Q709 470.7 716.05 472.3 L720.85 473.4 730.6 473.75 736.6 472.75 Q743.25 471.7 748.5 467.5 753.85 463.15 756.3 456.65 L779.4 393.8 798.15 344.6 798.25 330.9 800.65 326.3 806.45 315 821 319.55 821 501.95 646 501.95 646 326.3 666.55 326.3"/>
    <path stroke="none" fill="#7998B2" d="M398.1 663.7 L466.35 618.8 466.3 618.9 416 670.95 406.25 728.2 406.25 767.7 416.75 816.7 474.45 832.25 400.1 825.7 387.1 767.7 387.1 726.2 398.1 663.7"/>
    <path stroke="none" fill="#E2472B" d="M247.9 275.9 L244.45 277.55 229.6 257.1 223.05 246.6 216.3 234.45 Q212.4 226.6 209.95 220.9 L199.5 191.85 196.6 181.05 196.55 180.55 196.45 180.1 195.95 175.25 195.9 175.15 195.95 169.3 196.25 166.4 197.95 158.15 198.05 157.9 198.1 157.7 199.65 153 203.5 144.55 203.6 144.4 203.9 143.85 208.3 137.35 212.45 132.75 215.75 129.85 Q216.75 129 218.7 127.7 L223.1 125.2 226.55 126.85 227.85 131.45 228.7 134.65 230.8 143.25 230.9 143.5 232.3 149.65 232.4 149.95 232.4 150.1 232.45 150.25 234.55 160.8 234.6 160.95 234.6 161.15 234.65 161.5 234.7 161.65 234.7 161.8 235.8 169.45 235.8 169.6 235.85 169.8 236 176.05 235.55 181.5 235.55 181.85 234.5 193.1 237.55 225.2 237.65 225.6 240.1 240.1 242.45 251.7 247.9 275.9"/>
    <path stroke="none" fill="#D7CBCB" d="M302.1 939.1 Q301.75 938.25 302.1 937.45 302.6 936.65 303.45 936.5 L311.3 934.35 312.95 934.6 Q313.6 935 313.85 935.9 314.05 936.75 313.7 937.5 313.15 938.35 312.35 938.5 L304.5 940.65 302.95 940.45 Q302.3 939.95 302.1 939.1"/>
    <path stroke="none" fill="#D7CBCB" d="M301.9 962.55 Q301.8 961.65 302.35 960.95 303.05 960.3 303.9 960.4 L312.05 960.3 Q312.8 960.3 313.55 961 314.05 961.55 314.1 962.5 314.05 963.4 313.5 964 312.8 964.7 311.95 964.6 L303.8 964.65 Q303.05 964.65 302.4 964.05 301.9 963.4 301.9 962.55"/>
    <path stroke="none" fill="#D7CBCB" d="M316.85 989.65 Q316.15 989.05 316.05 988.15 316.05 987.2 316.75 986.65 L322.4 980.85 Q322.95 980.3 323.95 980.3 324.7 980.3 325.45 980.95 326 981.65 326.1 982.45 326.1 983.4 325.4 983.95 L319.65 989.75 Q319.15 990.25 318.25 990.35 317.45 990.25 316.85 989.65"/>
    <path stroke="none" fill="#D7CBCB" d="M325.7 812.85 Q325 812.25 324.9 811.35 324.9 810.4 325.6 809.85 L331.25 804.05 Q331.8 803.5 332.8 803.5 333.55 803.5 334.3 804.15 334.85 804.85 334.95 805.65 334.95 806.6 334.25 807.15 L328.5 812.95 Q328 813.45 327.1 813.55 326.3 813.45 325.7 812.85"/>
    <path stroke="none" fill="#1E1E1E" d="M226.25 711.7 Q237.4 711.7 245.35 716.1 253.25 720.5 253.25 726.7 L253.25 764.7 Q253.25 770.9 245.35 775.3 237.4 779.7 226.25 779.7 215.1 779.7 207.2 775.3 199.25 770.9 199.25 764.7 L199.25 726.7 Q199.25 720.5 207.2 716.1 215.1 711.7 226.25 711.7"/>
    <path stroke="none" fill="#7C9BB4" d="M908.8 160.5 L976.7 160.5 976.7 279 Q964.35 285.65 951.95 292.25 L935.7 282.25 909.2 279.75 885.2 284 877.3 275 908.8 160.5 M895.9 225.75 Q895.65 226.75 896.1 227.7 896.65 228.5 897.65 228.8 L899.55 228.6 Q900.45 228.05 900.7 227.05 L904.05 214.5 Q904.35 213.5 903.85 212.6 903.3 211.7 902.3 211.45 901.3 211.15 900.4 211.7 899.55 212.2 899.25 213.2 L895.9 225.75"/>
    <path stroke="none" fill="#577A98" d="M895.9 225.75 L899.25 213.2 Q899.55 212.2 900.4 211.7 901.3 211.15 902.3 211.45 903.3 211.7 903.85 212.6 904.35 213.5 904.05 214.5 L900.7 227.05 Q900.45 228.05 899.55 228.6 L897.65 228.8 Q896.65 228.5 896.1 227.7 895.65 226.75 895.9 225.75 M877.3 275 L869.45 266 896.9 160.5 908.8 160.5 877.3 275"/>
    <path stroke="none" fill="#7C9BB4" d="M906 655 L977.7 655 977.7 688.5 957.7 724 913.7 720.5 908.7 703 894.2 692.5 906 655"/>
    <path stroke="none" fill="#577A98" d="M906 655 L909.45 644 977.7 644 977.7 655 906 655"/>
  </g>
</svg>