<svg xmlns="http://www.w3.org/2000/svg" xmlns:xlink="http://www.w3.org/1999/xlink">
  <defs>
    <linearGradient gradientUnits="userSpaceOnUse" x1="-819.2" x2="819.2" spreadMethod="pad" gradientTransform="matrix(0 0.157470703125 -0.1409912109375 0 816.95 894.95)" id="gradient0">
      <stop offset="0" stop-color="#195C86"/>
      <stop offset="1" stop-color="#124163"/>
    </linearGradient>
    <linearGradient gradientUnits="userSpaceOnUse" x1="-819.2" x2="819.2" spreadMethod="pad" gradientTransform="matrix(0.1220703125 0 0 0.238037109375 924 329)" id="gradient1">
      <stop offset="0" stop-color="#F69878"/>
      <stop offset="1" stop-color="#F59170"/>
    </linearGradient>
    <linearGradient gradientUnits="userSpaceOnUse" x1="-819.2" x2="819.2" spreadMethod="pad" gradientTransform="matrix(0 0.29779052734375 -0.297210693359375 0 319.5 245)" id="gradient2">
      <stop offset="0" stop-color="#F69878"/>
      <stop offset="1" stop-color="#F59170"/>
    </linearGradient>
    <linearGradient gradientUnits="userSpaceOnUse" x1="-819.2" x2="819.2" spreadMethod="pad" gradientTransform="matrix(0 0.11151123046875 -0.11346435546875 0 321.5 386.05)" id="gradient3">
      <stop offset="0" stop-color="#F58865"/>
      <stop offset="1" stop-color="#F59373"/>
    </linearGradient>
    <linearGradient gradientUnits="userSpaceOnUse" x1="-819.2" x2="819.2" spreadMethod="pad" gradientTransform="matrix(0 -0.030517578125 0.030517578125 0 658 810)" id="gradient4">
      <stop offset="0" stop-opacity="0"/>
      <stop offset="1" stop-opacity="0.10196078431372549"/>
    </linearGradient>
    <linearGradient gradientUnits="userSpaceOnUse" x1="-819.2" x2="819.2" spreadMethod="pad" gradientTransform="matrix(0 -0.030517578125 -0.030517578125 0 794 810)" id="gradient5">
      <stop offset="0" stop-opacity="0"/>
      <stop offset="1" stop-opacity="0.10196078431372549"/>
    </linearGradient>
    <linearGradient gradientUnits="userSpaceOnUse" x1="-819.2" x2="819.2" spreadMethod="pad" gradientTransform="matrix(0 0.1007080078125 -0.1007080078125 0 320.95 567)" id="gradient6">
      <stop offset="0" stop-color="#EF4A37"/>
      <stop offset="1" stop-color="#F2664C"/>
    </linearGradient>
    <linearGradient gradientUnits="userSpaceOnUse" x1="-819.2" x2="819.2" spreadMethod="pad" gradientTransform="matrix(0 -0.1007080078125 -0.1007080078125 0 320.95 947)" id="gradient7">
      <stop offset="0" stop-color="#EF4A37"/>
      <stop offset="1" stop-color="#F2664C"/>
    </linearGradient>
  </defs>
  <g>
    <path stroke="none" fill="#FFFFFF" d="M0 490 L639 490 639 1024 0 1024 0 490"/>
    <path stroke="none" fill="#FFFFFF" d="M643 1024 L483 1024 483 490 643 490 643 1024 M0 490 L160 490 160 1024 0 1024 0 490"/>
    <path stroke="none" fill="#E5E5E5" d="M639 1024.05 L597 1024.05 597 490 639 490 639 1024.05"/>
    <path stroke="none" fill="#165279" d="M611 999 L611 995 1024 995 1024 999 611 999"/>
    <path stroke="none" fill="url(#gradient0)" d="M611 999 L1024 999 1024 1024 611 1024 611 999 M611 995 L611 764 1024 764 1024 995 611 995"/>
    <path stroke="none" fill="url(#gradient1)" d="M824 134 L1024 134 1024 524 824 524 824 134"/>
    <path stroke="none" fill="url(#gradient2)" d="M321.5 479 L395.2 472.05 Q443.15 273.75 360.85 295.2 344.75 299.35 321.5 299.55 298.25 299.35 282.15 295.2 199.85 273.75 247.8 472.05 L321.5 479 M0 0 L639 0 639 490 0 490 0 0"/>
    <path stroke="none" fill="url(#gradient3)" d="M321.5 479 L247.8 472.05 Q199.85 273.75 282.15 295.2 298.25 299.35 321.5 299.55 344.75 299.35 360.85 295.2 443.15 273.75 395.2 472.05 L321.5 479"/>
    <path stroke="none" fill="#F58C6A" d="M639 524 L1024 524 1024 764 639 764 639 524"/>
    <path stroke="none" fill="#220F0F" d="M365.05 220.45 Q365.05 224.25 362.5 226.9 360 229.6 356.4 229.6 352.8 229.6 350.25 226.9 347.75 224.25 347.75 220.45 347.75 216.6 350.25 213.95 352.8 211.3 356.4 211.3 360 211.3 362.5 213.95 365.05 216.6 365.05 220.45 M295.65 220.45 Q295.65 224.25 293.1 226.9 290.6 229.6 287 229.6 283.4 229.6 280.85 226.9 278.35 224.25 278.35 220.45 278.35 216.6 280.85 213.95 283.4 211.3 287 211.3 290.6 211.3 293.1 213.95 295.65 216.6 295.65 220.45"/>
    <path stroke="none" fill="#F47D59" d="M313.55 247.05 Q310 245.2 310 242.55 310 240.55 312.4 240 L331.7 240 Q334 240.6 334 242.55 334 245.2 330.5 247.05 327 248.95 322 249 317.05 248.95 313.55 247.05 M327.2 279.4 Q327.2 280.2 325.65 280.75 L321.95 281.3 318.2 280.75 Q316.7 280.2 316.7 279.4 L316.7 279.35 Q316.75 277.9 318.2 276.8 319.8 275.7 321.95 275.7 324.15 275.7 325.65 276.8 327.15 277.9 327.2 279.35 L327.2 279.4"/>
    <path fill="none" stroke="#4D160E" stroke-width="12" stroke-linecap="round" stroke-linejoin="round" d="M343.2 196.1 Q357.35 189.15 369.8 197.15 M299.05 201.1 Q284.9 194.15 272.45 202.15"/>
    <path fill="none" stroke="#F47D59" stroke-width="5" stroke-linecap="round" stroke-linejoin="round" d="M308.7 269.5 Q337 269.5 341.7 262.9"/>
    <path stroke="none" fill="#4D160E" d="M322.45 288.6 Q318.85 288.6 316.3 287.1 314.65 286.1 314.1 284.9 313.7 283.7 313.7 282.35 L313.7 282.25 Q313.75 280 316.3 278.35 318.85 276.7 322.45 276.7 L322.6 276.7 322.75 276.7 Q326.35 276.7 328.9 278.35 331.45 280 331.5 282.25 L331.5 282.35 Q331.5 283.7 331.1 284.9 330.55 286.1 328.9 287.1 326.35 288.6 322.75 288.6 L322.6 288.6 322.45 288.6"/>
    <path stroke="none" fill="#F58966" d="M241.2 184.25 Q241.7 168.9 247.25 163.05 254.1 154.15 260.7 152.6 267.35 151 272.8 151.35 277.65 151.6 288.45 155.95 253 147.95 241.2 184.25 M0 310 Q53.35 299.8 95.45 277.55 32.35 330.65 0 331 L0 310 M143.8 244.95 Q154.35 235.9 163.9 225.85 L173.1 215.6 Q182.7 205 193.2 209.65 L194 210.05 Q197.75 212 199.7 215.8 L201.85 219.95 202.9 221.95 201.15 220.2 Q187.75 209.4 143.8 244.95"/>
    <path stroke="none" fill="#4D160E" d="M143.8 244.95 L140.75 247.45 Q122.4 262.6 101 274.5 L95.45 277.55 Q53.35 299.8 0 310 L0 0 322 0 322 162.5 315 162.5 Q304.3 162.5 291.25 157.1 L288.45 155.95 Q277.65 151.6 272.8 151.35 267.35 151 260.7 152.6 254.1 154.15 247.25 163.05 241.7 168.9 241.2 184.25 240.95 193.2 242.4 205.35 243 212.65 244.05 219.6 245.35 230.85 237.2 233.8 L228.35 237.1 Q213.05 241.6 208.7 234.25 205.1 227.95 202.9 221.95 L201.85 219.95 199.7 215.8 Q197.75 212 194 210.05 L193.2 209.65 Q182.7 205 173.1 215.6 L163.9 225.85 Q154.35 235.9 143.8 244.95"/>
    <path stroke="none" fill="#F47B66" d="M183.45 220.7 L183.7 220.6 184.4 220.15 184.6 220.05 188.95 218.55 189.25 218.5 189.4 218.45 191.55 218.15 191.7 218.15 192.05 218.15 192.9 218.25 Q193.3 218.25 193.45 218.85 193.8 219.35 193.4 219.75 193.35 220.2 192.65 220.3 L190.45 221.3 190.25 221.4 189.55 221.8 189.45 221.85 189.1 222 188.65 222.3 188.55 222.35 186.35 223.85 184.2 225.8 184.25 225.7 183.9 226.1 183.75 226.25 182.05 228.3 181.95 228.35 181.85 228.45 181.3 229.35 181.25 229.4 181.2 229.5 181 229.8 180.8 230.2 180.7 230.35 180.6 230.55 180.5 230.75 180.45 230.8 179.7 232.65 179.4 233.5 178.95 235.75 178.85 237.5 178.85 237.6 178.8 237.95 178.85 239.2 179.2 241.4 179.35 242.15 179.45 242.45 179.5 242.6 179.5 242.7 180.05 244.2 181.15 246.25 181.2 246.35 181.25 246.45 181.55 246.95 182.1 247.65 182.15 247.75 182.5 248.2 182.6 248.3 182.7 248.4 183.25 249.05 183.35 249.15 183.5 249.3 183.6 249.35 184.6 250.4 184.7 250.5 185 250.8 185.4 251.1 185.5 251.2 185.55 251.25 185.7 251.35 188.3 253.3 189.65 254 189.7 254.05 190.5 254.45 190.65 254.5 191 254.65 191.15 254.75 191.4 254.8 191.6 254.9 192.55 255.25 192.65 255.3 193 255.45 193.1 255.45 195.45 256.2 195.85 256.45 195.9 256.5 196.2 257.2 195.9 257.9 195.8 258 195.2 258.3 194.2 258.4 194.05 258.4 190.5 258.15 190.2 258.1 190.1 258.1 189.6 258 189.5 258 188.45 257.75 188.3 257.7 187.75 257.55 187.6 257.5 185.7 256.8 185.55 256.7 185.3 256.55 184.2 256.05 184.1 256 181.55 254.45 181.4 254.35 178.05 251.4 177.9 251.2 177.8 251.05 177.85 251.2 177.05 250.3 177 250.15 176.85 249.95 176.65 249.75 176.55 249.6 175.75 248.4 175.7 248.4 Q174.85 247 174.35 245.7 L174.3 245.65 173.6 243.75 173.6 243.65 173.4 242.75 Q172.95 241.2 172.9 239.7 L172.85 239.35 172.85 239.2 172.85 236.95 172.9 236.65 172.9 236.5 173.35 233.55 173.4 233.5 Q173.7 232 174.35 230.55 L174.4 230.35 174.45 230.25 174.75 229.6 174.85 229.45 174.95 229.3 174.85 229.4 175.25 228.6 175.35 228.5 175.55 228.2 175.45 228.3 175.6 228 175.7 227.9 176 227.45 176.1 227.3 176.15 227.3 176.5 226.75 176.6 226.6 176.65 226.6 176.7 226.5 176.75 226.4 178 224.9 178.15 224.8 178.4 224.6 178.7 224.3 178.9 224.05 179 223.9 180.15 222.9 180.3 222.8 180.5 222.7 180.55 222.6 180.65 222.5 181.1 222.15 181.25 222.05 183.25 220.75 183.45 220.7 M195.75 237.6 Q196.2 240.65 195.4 242.95 194.5 245.3 192.8 245.6 191.15 245.85 189.65 243.8 188.1 241.9 187.65 238.85 187.15 235.75 188.05 233.4 188.9 231.1 190.55 230.85 192.25 230.55 193.8 232.55 195.25 234.5 195.75 237.6 M191.25 254.8 L191.3 254.85 191.3 254.8 191.25 254.8"/>
    <path stroke="none" fill="#E4783E" d="M639 134 L639 0 1024 0 1024 134 824 134 639 134"/>
    <path stroke="none" fill="#CCDDE7" d="M639 134 L824 134 824 524 639 524 639 134"/>
    <path stroke="none" fill="#000000" fill-opacity="0.10196078431372549" d="M1024 785 L1024 801 613 801 613 785 1024 785"/>
    <path stroke="none" fill="url(#gradient4)" d="M683 785 Q683 835 633 835 L633 785 683 785"/>
    <path stroke="none" fill="url(#gradient5)" d="M769 785 L819 785 819 835 Q769 835 769 785"/>
    <path stroke="none" fill="#EA3031" d="M160 498 L160 490 483 490 483 498 160 498 M483 1016 L483 1024 160 1024 160 1016 483 1016"/>
    <path stroke="none" fill="url(#gradient6)" d="M160 498 L483 498 483 655 160 655 160 498"/>
    <path stroke="none" fill="#F2654C" d="M483 655 L483 859 160 859 160 655 483 655"/>
    <path stroke="none" fill="url(#gradient7)" d="M483 859 L483 1016 160 1016 160 859 483 859"/>
    <path stroke="none" fill="#EA3031" d="M152 490.05 L160 490.05 160 1024.1 152 1024.1 152 490.05"/>
    <path stroke="none" fill="#000000" fill-opacity="0.10196078431372549" d="M152 490.05 L152 1024.1 144 1024.1 144 490.05 152 490.05"/>
    <path stroke="none" fill="#000000" fill-opacity="0.10196078431372549" d="M491 490.05 L499 490.05 499 1024.1 491 1024.1 491 490.05"/>
    <path stroke="none" fill="#EA3031" d="M491 490.05 L491 1024.1 483 1024.1 483 490.05 491 490.05"/>
    <path stroke="none" fill="#EA3031" d="M320.35 716.55 L361.2 721.95 367.45 743.2 359.2 770.3 320.35 779.7 281.5 770.3 273.25 743.2 279.5 721.95 320.35 716.55"/>
    <path stroke="none" fill="#D7CBCB" d="M268.6 192.3 Q269.4 191.8 270.2 192 271.1 192.2 271.5 192.95 L275.55 199.95 Q276 200.7 275.8 201.6 L274.75 202.85 273.15 203.1 Q272.3 202.85 271.85 202.1 L267.8 195.1 Q267.4 194.35 267.6 193.55 267.85 192.7 268.6 192.3"/>
    <path stroke="none" fill="#EA3031" d="M483 510 L160 510 160 498 483 498 483 510"/>
    <path stroke="none" fill="#EA3031" d="M483 994 L483 1008 160 1008 160 994 483 994 M287.65 1003.25 L295.7 1002.95 287.65 1003.25"/>
    <path stroke="none" fill="#FFFFFF" d="M307.95 854.85 Q310.95 854.6 312.65 852.45 314.25 850.3 313.9 847.2 313.55 844.1 311.55 842.1 309.4 839.85 306.45 840.15 303.4 840.5 301.2 843.05 299 845.7 299.25 848.7 299.55 851.6 302.25 853.5 304.85 855.2 307.95 854.85 M320.7 857.45 L320.7 857.35 321 857.45 Q321.6 857.45 322.05 857 322.45 856.55 322.45 855.9 L322.25 855.15 319.45 851.1 Q319.05 850.45 318.3 850.45 317.25 850.45 316.9 851.3 L314.95 855.9 314.9 856.5 Q314.9 857.05 315.3 857.5 315.75 857.9 316.35 857.9 L317.05 857.8 318.3 857.15 319.3 857 320.7 857.45 M350.55 842.3 Q351.3 850.15 346.45 853.9 342.6 856.85 333.45 858.15 L333.85 862.5 Q333.85 864.15 332.75 865.45 331.6 866.6 329.95 866.8 L329.5 866.85 Q327.9 866.85 326.65 865.7 325.35 864.6 325.25 862.9 L325.25 863.45 Q325.25 865.2 323.95 866.4 322.7 867.7 320.9 867.7 319.25 867.7 318.05 866.55 316.75 865.45 316.6 863.75 L316.6 864.2 Q316.6 865.85 315.55 867.15 314.4 868.35 312.75 868.5 L312.3 868.55 Q310.7 868.55 309.4 867.45 308.1 866.3 307.95 864.65 L307.5 860.3 Q300.95 860.1 297.65 857.6 293.65 854.65 293 848 291.85 837 299.55 828.45 307.2 819.9 319.1 818.65 331 817.5 340.2 824.35 349.45 831.3 350.55 842.3 M330.95 852.05 L330.95 852 Q334.9 851.6 337.9 848.7 341 845.65 340.6 841.95 340.2 838.25 336.6 835.65 333 833.25 329.1 833.65 325.5 834.05 323.55 837 321.8 839.8 322.2 843.75 322.5 847.7 324.85 850 327.25 852.45 330.95 852.05"/>
    <path stroke="none" fill="#4D160E" d="M350.55 155.95 L347.75 157.1 Q334.7 162.5 324 162.5 L317 162.5 317 0 639 0 639 310 Q585.65 299.8 543.55 277.55 L538 274.5 Q516.6 262.6 498.25 247.45 L495.2 244.95 Q484.65 235.9 475.1 225.85 L465.9 215.6 Q456.3 205 445.8 209.65 L445 210.05 Q441.25 212 439.3 215.8 L437.15 219.95 436.1 221.95 Q433.9 227.95 430.3 234.25 425.95 241.6 410.65 237.1 L401.8 233.8 Q393.65 230.85 394.95 219.6 396 212.65 396.6 205.35 398.05 193.2 397.8 184.25 397.3 168.9 391.75 163.05 384.9 154.15 378.3 152.6 371.65 151 366.2 151.35 361.35 151.6 350.55 155.95"/>
    <path stroke="none" fill="#F58966" d="M350.55 155.95 Q361.35 151.6 366.2 151.35 371.65 151 378.3 152.6 384.9 154.15 391.75 163.05 397.3 168.9 397.8 184.25 386 147.95 350.55 155.95 M436.1 221.95 L437.15 219.95 439.3 215.8 Q441.25 212 445 210.05 L445.8 209.65 Q456.3 205 465.9 215.6 L475.1 225.85 Q484.65 235.9 495.2 244.95 451.25 209.4 437.85 220.2 436.9 220.95 436.1 221.95 M543.55 277.55 Q585.65 299.8 639 310 L639 331 Q606.65 330.65 543.55 277.55"/>
    <path stroke="none" fill="#F47B66" d="M443.25 237.6 Q443.75 234.5 445.2 232.55 446.75 230.55 448.45 230.85 450.1 231.1 450.95 233.4 451.85 235.75 451.35 238.85 450.9 241.9 449.35 243.8 447.85 245.85 446.2 245.6 444.5 245.3 443.6 242.95 442.8 240.65 443.25 237.6 M455.55 220.7 L455.75 220.75 457.75 222.05 457.9 222.15 458.35 222.5 458.45 222.6 458.5 222.7 458.7 222.8 458.85 222.9 460 223.9 460.1 224.05 460.3 224.3 460.6 224.6 460.85 224.8 461 224.9 462.25 226.4 462.3 226.5 462.35 226.6 462.4 226.6 462.5 226.75 462.85 227.3 462.9 227.3 463 227.45 463.3 227.9 463.4 228 463.55 228.3 463.45 228.2 463.65 228.5 463.75 228.6 464.15 229.4 464.05 229.3 464.15 229.45 464.25 229.6 464.55 230.25 464.6 230.35 464.65 230.55 Q465.3 232 465.6 233.5 L465.65 233.55 466.1 236.5 466.1 236.65 466.15 236.95 466.15 239.2 466.15 239.35 466.1 239.7 Q466.05 241.2 465.6 242.75 L465.4 243.65 465.4 243.75 464.7 245.65 464.65 245.7 463.3 248.4 463.25 248.4 462.45 249.6 462.35 249.75 462.15 249.95 462 250.15 461.95 250.3 461.15 251.2 461.2 251.05 461.1 251.2 460.95 251.4 457.6 254.35 457.45 254.45 454.9 256 454.8 256.05 453.7 256.55 453.45 256.7 453.3 256.8 451.4 257.5 451.25 257.55 450.7 257.7 450.55 257.75 449.5 258 449.4 258 448.9 258.1 448.8 258.1 448.5 258.15 444.95 258.4 444.8 258.4 443.8 258.3 Q443.45 258.25 443.2 258 L443.1 257.9 Q442.8 257.6 442.8 257.2 442.8 256.8 443.1 256.5 L443.15 256.45 443.55 256.2 445.9 255.45 446 255.45 446.35 255.3 446.45 255.25 447.4 254.9 447.6 254.8 447.85 254.75 448 254.65 448.35 254.5 448.5 254.45 449.3 254.05 449.35 254 450.7 253.3 453.3 251.35 453.45 251.25 453.5 251.2 453.6 251.1 454 250.8 454.3 250.5 454.4 250.4 455.4 249.35 455.5 249.3 455.65 249.15 455.75 249.05 456.3 248.4 456.4 248.3 456.5 248.2 456.85 247.75 456.9 247.65 457.45 246.95 457.75 246.45 457.8 246.35 457.85 246.25 458.95 244.2 459.5 242.7 459.5 242.6 459.55 242.45 459.65 242.15 459.8 241.4 460.15 239.2 460.2 237.95 460.15 237.6 460.15 237.5 460.05 235.75 459.6 233.5 459.3 232.65 458.55 230.8 458.5 230.75 458.4 230.55 458.3 230.35 458.2 230.2 458 229.8 457.8 229.5 457.75 229.4 457.7 229.35 457.15 228.45 457.05 228.35 456.95 228.3 455.25 226.25 455.1 226.1 454.75 225.7 454.8 225.8 452.65 223.85 450.45 222.35 450.35 222.3 449.9 222 449.55 221.85 449.45 221.8 448.75 221.4 448.55 221.3 446.35 220.3 Q445.65 220.2 445.6 219.75 445.2 219.35 445.55 218.85 445.7 218.25 446.1 218.25 446.5 217.85 446.95 218.15 L447.3 218.15 447.45 218.15 449.6 218.45 449.75 218.5 450.05 218.55 454.4 220.05 454.6 220.15 455.3 220.6 455.55 220.7 M447.75 254.8 L447.7 254.8 447.7 254.85 447.75 254.8"/>
    <path stroke="none" fill="#4D160E" d="M408.75 147.05 Q410.05 148 410.5 149.25 410.9 150.7 410.6 152.15 410.15 153.5 408.8 154.55 369.15 184.35 315.95 179.8 314.15 179.65 313.15 178.55 312.05 177.7 311.75 176.1 311.4 174.55 311.8 173.2 312.7 171.8 313.95 171.05 342.15 156 359.2 117.95 359.8 116.6 361 115.85 362.25 115.15 363.65 115.15 365.1 115.2 366.3 116 L408.75 147.05"/>
    <path stroke="none" fill="#4D160E" d="M357.9 149.6 Q358.8 150.5 359.05 151.5 L358.9 153.75 Q358.4 154.75 357.25 155.45 323.85 174.85 283.1 166.55 281.75 166.25 281.05 165.35 280.25 164.55 280.2 163.3 280.05 162.05 280.5 161.05 281.3 160.05 282.35 159.55 305.55 150.5 322.2 122.6 322.75 121.6 323.8 121.15 324.8 120.7 325.9 120.8 327 121 327.85 121.7 L357.9 149.6"/>
    <path stroke="none" fill="#E5E5E5" d="M42 1024.1 L0 1024.1 0 490.05 42 490.05 42 1024.1"/>
    <path stroke="none" fill="#CCDDE7" d="M666.55 151.3 L666.6 177.95 668.05 193.65 674.1 219.85 678.1 233.65 689.7 262.05 697.75 281.75 Q699.65 286.45 703.2 290 L703.8 290.55 Q709 295.7 716.05 297.3 L720.85 298.4 730.6 298.75 736.6 297.75 Q743.25 296.7 748.5 292.5 753.85 288.15 756.3 281.65 L761.8 266.7 779.4 218.8 798.15 169.6 798.25 155.9 800.65 151.3 806.45 140 821 144.55 821 326.95 646 326.95 646 151.3 666.55 151.3"/>
    <path stroke="none" fill="#38BB96" d="M666.55 151.3 L691.45 151.3 694.35 167.6 695.05 171.75 696.05 177.95 Q697.1 184.55 701.5 189.7 L709.85 199.25 Q713.2 203.15 717.9 205.3 722.55 207.4 727.75 207.4 735.95 207.4 742.35 202.35 L745.8 199.65 Q748.9 197.2 751.1 193.8 L755.9 186.3 Q757.2 184.15 758.1 181.85 L769.75 151.3 800.65 151.3 798.25 155.9 798.15 169.6 779.4 218.8 761.8 266.7 744.95 249.5 707.45 249.5 689.7 262.05 678.1 233.65 674.1 219.85 668.05 193.65 666.6 177.95 666.55 151.3 M716.2 231.35 Q715.1 231.35 714.3 232.15 713.5 232.95 713.5 234.05 L713.5 234.1 Q713.5 235.2 714.3 235.95 715.1 236.75 716.2 236.75 L737.45 236.75 Q738.55 236.75 739.35 235.95 740.15 235.2 740.15 234.1 L740.15 234.05 Q740.15 232.95 739.35 232.15 738.55 231.35 737.45 231.35 L716.2 231.35 M716.2 221.35 Q715.1 221.35 714.3 222.15 713.5 222.95 713.5 224.05 L713.5 224.1 Q713.5 225.2 714.3 225.95 715.1 226.75 716.2 226.75 L737.45 226.75 Q738.55 226.75 739.35 225.95 740.15 225.2 740.15 224.1 L740.15 224.05 Q740.15 222.95 739.35 222.15 738.55 221.35 737.45 221.35 L716.2 221.35 M716.2 211.35 Q715.1 211.35 714.3 212.15 713.5 212.95 713.5 214.05 L713.5 214.1 Q713.5 215.2 714.3 215.95 715.1 216.75 716.2 216.75 L737.45 216.75 Q738.55 216.75 739.35 215.95 740.15 215.2 740.15 214.1 L740.15 214.05 Q740.15 212.95 739.35 212.15 738.55 211.35 737.45 211.35 L716.2 211.35"/>
    <path stroke="none" fill="#F4F4F4" d="M716.2 211.35 L737.45 211.35 Q738.55 211.35 739.35 212.15 740.15 212.95 740.15 214.05 L740.15 214.1 Q740.15 215.2 739.35 215.95 738.55 216.75 737.45 216.75 L716.2 216.75 Q715.1 216.75 714.3 215.95 713.5 215.2 713.5 214.1 L713.5 214.05 Q713.5 212.95 714.3 212.15 715.1 211.35 716.2 211.35 M769.75 151.3 L758.1 181.85 Q757.2 184.15 755.9 186.3 L751.1 193.8 Q748.9 197.2 745.8 199.65 L742.35 202.35 Q735.95 207.4 727.75 207.4 722.55 207.4 717.9 205.3 713.2 203.15 709.85 199.25 L701.5 189.7 Q697.1 184.55 696.05 177.95 L695.05 171.75 694.35 167.6 691.45 151.3 769.75 151.3 M716.2 221.35 L737.45 221.35 Q738.55 221.35 739.35 222.15 740.15 222.95 740.15 224.05 L740.15 224.1 Q740.15 225.2 739.35 225.95 738.55 226.75 737.45 226.75 L716.2 226.75 Q715.1 226.75 714.3 225.95 713.5 225.2 713.5 224.1 L713.5 224.05 Q713.5 222.95 714.3 222.15 715.1 221.35 716.2 221.35 M716.2 231.35 L737.45 231.35 Q738.55 231.35 739.35 232.15 740.15 232.95 740.15 234.05 L740.15 234.1 Q740.15 235.2 739.35 235.95 738.55 236.75 737.45 236.75 L716.2 236.75 Q715.1 236.75 714.3 235.95 713.5 235.2 713.5 234.1 L713.5 234.05 Q713.5 232.95 714.3 232.15 715.1 231.35 716.2 231.35"/>
    <path stroke="none" fill="#F6F6F6" d="M761.8 266.7 L756.3 281.65 Q753.85 288.15 748.5 292.5 743.25 296.7 736.6 297.75 L730.6 298.75 720.85 298.4 716.05 297.3 Q709 295.7 703.8 290.55 L703.2 290 Q699.65 286.45 697.75 281.75 L689.7 262.05 707.45 249.5 744.95 249.5 761.8 266.7"/>
    <path stroke="none" fill="#F4F4F4" d="M769.75 326.3 L758.1 356.85 Q757.2 359.15 755.9 361.3 L751.1 368.8 Q748.9 372.2 745.8 374.65 L742.35 377.35 Q735.95 382.4 727.75 382.4 722.55 382.4 717.9 380.3 713.2 378.15 709.85 374.25 L701.5 364.7 Q697.1 359.55 696.05 352.95 L695.05 346.75 694.35 342.6 691.45 326.3 769.75 326.3 M716.2 386.35 L737.45 386.35 Q738.55 386.35 739.35 387.15 740.15 387.95 740.15 389.05 L740.15 389.1 Q740.15 390.2 739.35 390.95 738.55 391.75 737.45 391.75 L716.2 391.75 Q715.1 391.75 714.3 390.95 713.5 390.2 713.5 389.1 L713.5 389.05 Q713.5 387.95 714.3 387.15 715.1 386.35 716.2 386.35 M716.2 396.35 L737.45 396.35 Q738.55 396.35 739.35 397.15 740.15 397.95 740.15 399.05 L740.15 399.1 Q740.15 400.2 739.35 400.95 738.55 401.75 737.45 401.75 L716.2 401.75 Q715.1 401.75 714.3 400.95 713.5 400.2 713.5 399.1 L713.5 399.05 Q713.5 397.95 714.3 397.15 715.1 396.35 716.2 396.35 M716.2 406.35 L737.45 406.35 Q738.55 406.35 739.35 407.15 740.15 407.95 740.15 409.05 L740.15 409.1 Q740.15 410.2 739.35 410.95 738.55 411.75 737.45 411.75 L716.2 411.75 Q715.1 411.75 714.3 410.95 713.5 410.2 713.5 409.1 L713.5 409.05 Q713.5 407.95 714.3 407.15 715.1 406.35 716.2 406.35"/>
    <path stroke="none" fill="#38BB96" d="M716.2 406.35 Q715.1 406.35 714.3 407.15 713.5 407.95 713.5 409.05 L713.5 409.1 Q713.5 410.2 714.3 410.95 715.1 411.75 716.2 411.75 L737.45 411.75 Q738.55 411.75 739.35 410.95 740.15 410.2 740.15 409.1 L740.15 409.05 Q740.15 407.95 739.35 407.15 738.55 406.35 737.45 406.35 L716.2 406.35 M691.45 326.3 L694.35 342.6 695.05 346.75 696.05 352.95 Q697.1 359.55 701.5 364.7 L709.85 374.25 Q713.2 378.15 717.9 380.3 722.55 382.4 727.75 382.4 735.95 382.4 742.35 377.35 L745.8 374.65 Q748.9 372.2 751.1 368.8 L755.9 361.3 Q757.2 359.15 758.1 356.85 L769.75 326.3 800.65 326.3 798.25 330.9 798.15 344.6 779.4 393.8 761.8 441.7 744.95 424.5 707.45 424.5 689.7 437.05 678.1 408.65 674.1 394.85 668.05 368.65 666.6 352.95 666.55 326.3 691.45 326.3 M716.2 386.35 Q715.1 386.35 714.3 387.15 713.5 387.95 713.5 389.05 L713.5 389.1 Q713.5 390.2 714.3 390.95 715.1 391.75 716.2 391.75 L737.45 391.75 Q738.55 391.75 739.35 390.95 740.15 390.2 740.15 389.1 L740.15 389.05 Q740.15 387.95 739.35 387.15 738.55 386.35 737.45 386.35 L716.2 386.35 M716.2 396.35 Q715.1 396.35 714.3 397.15 713.5 397.95 713.5 399.05 L713.5 399.1 Q713.5 400.2 714.3 400.95 715.1 401.75 716.2 401.75 L737.45 401.75 Q738.55 401.75 739.35 400.95 740.15 400.2 740.15 399.1 L740.15 399.05 Q740.15 397.95 739.35 397.15 738.55 396.35 737.45 396.35 L716.2 396.35"/>
    <path stroke="none" fill="#CCDDE7" d="M666.55 326.3 L666.6 352.95 668.05 368.65 674.1 394.85 678.1 408.65 689.7 437.05 697.75 456.75 Q699.65 461.45 703.2 465 L703.8 465.55 Q709 470.7 716.05 472.3 L720.85 473.4 730.6 473.75 736.6 472.75 Q743.25 471.7 748.5 467.5 753.85 463.15 756.3 456.65 L761.8 441.7 779.4 393.8 798.15 344.6 798.25 330.9 800.65 326.3 806.45 315 821 319.55 821 501.95 646 501.95 646 326.3 666.55 326.3"/>
    <path stroke="none" fill="#F6F6F6" d="M689.7 437.05 L707.45 424.5 744.95 424.5 761.8 441.7 756.3 456.65 Q753.85 463.15 748.5 467.5 743.25 471.7 736.6 472.75 L730.6 473.75 720.85 473.4 716.05 472.3 Q709 470.7 703.8 465.55 L703.2 465 Q699.65 461.45 697.75 456.75 L689.7 437.05"/>
    <path stroke="none" fill="#252525" d="M611 899.65 L1024 899.65 1024 910.25 611 910.25 611 899.65"/>
    <path stroke="none" fill="#191919" d="M673.65 891.7 Q677.35 894.4 678.05 900 678.95 907.15 678.05 913.6 677.6 916.65 676.15 918.75 L673.9 920.9 Q671.6 922.45 668.2 922.9 658.55 924.4 649.05 923.05 645.65 922.55 643.45 921 642.15 920.1 641.3 918.9 639.65 916.75 639.3 913.5 638.45 906.3 639.15 900.05 639.85 894.35 643.55 891.65 645.75 889.95 649.1 889.4 658.55 887.8 667.8 889.4 671.3 890 673.65 891.7 M652.15 907.65 Q651.1 907.65 650.35 908.35 649.65 909.1 649.65 910.15 649.65 911.2 650.35 911.9 651.1 912.65 652.15 912.65 L665.15 912.65 Q666.2 912.65 666.9 911.9 667.65 911.2 667.65 910.15 667.65 909.1 666.9 908.35 666.2 907.65 665.15 907.65 L652.15 907.65 M652.15 899.65 Q651.1 899.65 650.35 900.35 649.65 901.1 649.65 902.15 649.65 903.2 650.35 903.9 651.1 904.65 652.15 904.65 L665.15 904.65 Q666.2 904.65 666.9 903.9 667.65 903.2 667.65 902.15 667.65 901.1 666.9 900.35 666.2 899.65 665.15 899.65 L652.15 899.65"/>
    <path stroke="none" fill="#383838" d="M652.15 899.65 L665.15 899.65 Q666.2 899.65 666.9 900.35 667.65 901.1 667.65 902.15 667.65 903.2 666.9 903.9 666.2 904.65 665.15 904.65 L652.15 904.65 Q651.1 904.65 650.35 903.9 649.65 903.2 649.65 902.15 649.65 901.1 650.35 900.35 651.1 899.65 652.15 899.65 M652.15 907.65 L665.15 907.65 Q666.2 907.65 666.9 908.35 667.65 909.1 667.65 910.15 667.65 911.2 666.9 911.9 666.2 912.65 665.15 912.65 L652.15 912.65 Q651.1 912.65 650.35 911.9 649.65 911.2 649.65 910.15 649.65 909.1 650.35 908.35 651.1 907.65 652.15 907.65"/>
    <path stroke="none" fill="#191919" d="M787.65 907.65 Q786.6 907.65 785.85 908.35 785.15 909.1 785.15 910.15 785.15 911.2 785.85 911.9 786.6 912.65 787.65 912.65 L800.65 912.65 Q801.7 912.65 802.4 911.9 803.15 911.2 803.15 910.15 803.15 909.1 802.4 908.35 801.7 907.65 800.65 907.65 L787.65 907.65 M784.6 889.4 Q794.05 887.8 803.3 889.4 806.8 890 809.15 891.7 812.85 894.4 813.55 900 814.45 907.15 813.55 913.6 813.1 916.65 811.65 918.75 810.7 920 809.4 920.9 807.1 922.45 803.7 922.9 794.05 924.4 784.55 923.05 781.15 922.55 778.95 921 777.65 920.1 776.8 918.9 775.15 916.75 774.8 913.5 773.95 906.3 774.65 900.05 775.35 894.35 779.05 891.65 781.25 889.95 784.6 889.4 M787.65 899.65 Q786.6 899.65 785.85 900.35 785.15 901.1 785.15 902.15 785.15 903.2 785.85 903.9 786.6 904.65 787.65 904.65 L800.65 904.65 Q801.7 904.65 802.4 903.9 803.15 903.2 803.15 902.15 803.15 901.1 802.4 900.35 801.7 899.65 800.65 899.65 L787.65 899.65"/>
    <path stroke="none" fill="#383838" d="M787.65 899.65 L800.65 899.65 Q801.7 899.65 802.4 900.35 803.15 901.1 803.15 902.15 803.15 903.2 802.4 903.9 801.7 904.65 800.65 904.65 L787.65 904.65 Q786.6 904.65 785.85 903.9 785.15 903.2 785.15 902.15 785.15 901.1 785.85 900.35 786.6 899.65 787.65 899.65 M787.65 907.65 L800.65 907.65 Q801.7 907.65 802.4 908.35 803.15 909.1 803.15 910.15 803.15 911.2 802.4 911.9 801.7 912.65 800.65 912.65 L787.65 912.65 Q786.6 912.65 785.85 911.9 785.15 911.2 785.15 910.15 785.15 909.1 785.85 908.35 786.6 907.65 787.65 907.65"/>
    <path stroke="none" fill="#252525" d="M509.25 1024.1 L509.25 490.05 528.75 490.05 528.75 1024.1 509.25 1024.1"/>
    <path stroke="none" fill="#191919" d="M485.3 718.95 Q482.15 709.5 485.3 700.25 488.25 691.15 506.2 690 520.25 689.1 532.95 690 548.9 691.15 551.25 699.85 554.2 709.5 551.55 719 548.9 727.8 532.75 728.75 518.6 729.6 506.3 728.9 488.25 727.8 485.3 718.95"/>
    <path stroke="none" fill="#383838" d="M520.35 716 L520.35 703 Q520.35 701.95 521.75 701.25 523.2 700.5 525.3 700.5 527.35 700.5 528.75 701.25 530.2 701.95 530.2 703 L530.2 716 Q530.2 717.05 528.75 717.8 527.35 718.5 525.3 718.5 523.2 718.5 521.75 717.8 520.35 717.05 520.35 716 M504.6 716 L504.6 703 Q504.6 701.95 506 701.25 507.45 700.5 509.55 700.5 511.6 700.5 513 701.25 514.45 701.95 514.45 703 L514.45 716 Q514.45 717.05 513 717.8 511.6 718.5 509.55 718.5 507.45 718.5 506 717.8 504.6 717.05 504.6 716"/>
    <path stroke="none" fill="#373737" d="M133.75 1024.15 L114.25 1024.15 114.25 490.1 133.75 490.1 133.75 1024.15"/>
    <path stroke="none" fill="#191919" d="M157.7 719 Q154.75 727.85 136.7 728.95 124.4 729.65 110.25 728.8 94.1 727.85 91.45 719.05 88.8 709.55 91.75 699.9 94.1 691.2 110.05 690.05 122.75 689.15 136.8 690.05 154.75 691.2 157.7 700.3 160.85 709.55 157.7 719"/>
    <path stroke="none" fill="#383838" d="M138.4 716.05 Q138.4 717.1 137 717.85 135.55 718.55 133.45 718.55 131.4 718.55 130 717.85 128.55 717.1 128.55 716.05 L128.55 703.05 Q128.55 702 130 701.3 131.4 700.55 133.45 700.55 135.55 700.55 137 701.3 138.4 702 138.4 703.05 L138.4 716.05 M122.65 716.05 Q122.65 717.1 121.25 717.85 119.8 718.55 117.7 718.55 115.65 718.55 114.25 717.85 112.8 717.1 112.8 716.05 L112.8 703.05 Q112.8 702 114.25 701.3 115.65 700.55 117.7 700.55 119.8 700.55 121.25 701.3 122.65 702 122.65 703.05 L122.65 716.05"/>
    <path stroke="none" fill="#383838" d="M976.45 654 L904.45 654 907.9 643 976.45 643 976.45 654 M788.25 641 L791.7 630 859.95 630 859.95 641 788.25 641"/>
    <path stroke="none" fill="#252525" d="M788.25 641 L859.95 641 859.95 674.5 839.95 710 795.95 706.5 774.45 683 788.25 641 M976.45 654 L976.45 686.5 956.45 722 912.45 718.5 907.45 701 892.95 690.5 904.45 654 976.45 654"/>
    <path stroke="none" fill="#252525" d="M908.8 160.5 L976.7 160.5 976.7 279 Q964.35 285.65 951.95 292.25 L935.7 282.25 909.2 279.75 885.2 284 877.3 275 908.8 160.5 M895.9 225.75 Q895.65 226.75 896.1 227.7 896.65 228.5 897.65 228.8 L899.55 228.6 Q900.45 228.05 900.7 227.05 L904.05 214.5 Q904.35 213.5 903.85 212.6 903.3 211.7 902.3 211.45 901.3 211.15 900.4 211.7 899.55 212.2 899.25 213.2 L895.9 225.75"/>
    <path stroke="none" fill="#383838" d="M895.9 225.75 L899.25 213.2 Q899.55 212.2 900.4 211.7 901.3 211.15 902.3 211.45 903.3 211.7 903.85 212.6 904.35 213.5 904.05 214.5 L900.7 227.05 Q900.45 228.05 899.55 228.6 L897.65 228.8 Q896.65 228.5 896.1 227.7 895.65 226.75 895.9 225.75 M877.3 275 L869.45 266 896.9 160.5 908.8 160.5 877.3 275"/>
    <path stroke="none" fill="#383838" d="M895.9 400.25 L899.25 387.7 Q899.55 386.7 900.4 386.2 901.3 385.65 902.3 385.95 903.3 386.2 903.85 387.1 904.35 388 904.05 389 L900.7 401.55 Q900.45 402.55 899.55 403.1 L897.65 403.3 Q896.65 403 896.1 402.2 895.65 401.25 895.9 400.25 M877.3 449.5 L869.45 440.5 896.9 335 908.8 335 877.3 449.5"/>
    <path stroke="none" fill="#252525" d="M908.8 335 L976.7 335 976.7 453.5 Q964.35 460.15 951.95 466.75 L935.7 456.75 909.2 454.25 885.2 458.5 877.3 449.5 908.8 335 M895.9 400.25 Q895.65 401.25 896.1 402.2 896.65 403 897.65 403.3 L899.55 403.1 Q900.45 402.55 900.7 401.55 L904.05 389 Q904.35 388 903.85 387.1 903.3 386.2 902.3 385.95 901.3 385.65 900.4 386.2 899.55 386.7 899.25 387.7 L895.9 400.25"/>
    <path stroke="none" fill="#EA3031" d="M278.5 994 Q299.4 992.7 321.4 982.5 342.7 971.45 361.9 974.25 368.9 975.35 373.9 977.65 376.25 978.7 378.15 980.05 402.6 993.15 433 994 L278.5 994"/>
    <path stroke="none" fill="#FFFFFF" d="M288.95 1008 Q306.7 1006.9 325.45 998.2 343.55 988.8 359.9 991.2 365.85 992.1 370.1 994.1 372.1 994.95 373.7 996.1 394.5 1007.25 420.35 1008 L288.95 1008"/>
  </g>
</svg>