<svg xmlns="http://www.w3.org/2000/svg" xmlns:xlink="http://www.w3.org/1999/xlink">
  <defs>
    <linearGradient gradientUnits="userSpaceOnUse" x1="-819.2" x2="819.2" spreadMethod="pad" gradientTransform="matrix(0 0.1376953125 -0.1409912109375 0 818.3 942.2)" id="gradient0">
      <stop offset="0" stop-color="#252525"/>
      <stop offset="1" stop-color="#121212"/>
    </linearGradient>
    <linearGradient gradientUnits="userSpaceOnUse" x1="-819.2" x2="819.2" spreadMethod="pad" gradientTransform="matrix(0.1220703125 0 0 0.238037109375 924 329)" id="gradient1">
      <stop offset="0" stop-color="#F69878"/>
      <stop offset="1" stop-color="#F59170"/>
    </linearGradient>
    <linearGradient gradientUnits="userSpaceOnUse" x1="-819.2" x2="819.2" spreadMethod="pad" gradientTransform="matrix(0 0.29779052734375 -0.297210693359375 0 319.5 245)" id="gradient2">
      <stop offset="0" stop-color="#F69878"/>
      <stop offset="1" stop-color="#F59170"/>
    </linearGradient>
    <linearGradient gradientUnits="userSpaceOnUse" x1="-819.2" x2="819.2" spreadMethod="pad" gradientTransform="matrix(0 0.11151123046875 -0.11346435546875 0 321.5 386.05)" id="gradient3">
      <stop offset="0" stop-color="#F58865"/>
      <stop offset="1" stop-color="#F59373"/>
    </linearGradient>
    <linearGradient gradientUnits="userSpaceOnUse" x1="-819.2" x2="819.2" spreadMethod="pad" gradientTransform="matrix(0 -0.030517578125 0.030517578125 0 658 810)" id="gradient4">
      <stop offset="0" stop-opacity="0"/>
      <stop offset="1" stop-opacity="0.10196078431372549"/>
    </linearGradient>
    <linearGradient gradientUnits="userSpaceOnUse" x1="-819.2" x2="819.2" spreadMethod="pad" gradientTransform="matrix(0 -0.030517578125 -0.030517578125 0 794 810)" id="gradient5">
      <stop offset="0" stop-opacity="0"/>
      <stop offset="1" stop-opacity="0.10196078431372549"/>
    </linearGradient>
    <linearGradient gradientUnits="userSpaceOnUse" x1="-819.2" x2="819.2" spreadMethod="pad" gradientTransform="matrix(0 0.1007080078125 -0.1007080078125 0 320.95 567)" id="gradient6">
      <stop offset="0" stop-color="#101010"/>
      <stop offset="1" stop-color="#252525"/>
    </linearGradient>
    <linearGradient gradientUnits="userSpaceOnUse" x1="-819.2" x2="819.2" spreadMethod="pad" gradientTransform="matrix(0 -0.1007080078125 -0.1007080078125 0 320.95 947)" id="gradient7">
      <stop offset="0" stop-color="#101010"/>
      <stop offset="1" stop-color="#252525"/>
    </linearGradient>
    <linearGradient gradientUnits="userSpaceOnUse" x1="-819.2" x2="819.2" spreadMethod="pad" gradientTransform="matrix(0 -0.019287109375 0.019287109375 0 320.7 882.75)" id="gradient8">
      <stop offset="0" stop-opacity="0"/>
      <stop offset="1" stop-opacity="0.6"/>
    </linearGradient>
  </defs>
  <g>
    <path stroke="none" fill="#FFFFFF" d="M0 490 L639 490 639 1024 0 1024 0 490"/>
    <path stroke="none" fill="#EA3031" d="M643 1024 L483 1024 483 490 643 490 643 1024 M0 490 L160 490 160 1024 0 1024 0 490"/>
    <path stroke="none" fill="#252525" d="M127.65 512.3 L149.9 490.05 160 490.05 160 1024 149.9 1024 127.65 1001.75 149.9 979.5 127.65 957.25 149.9 935 127.65 912.75 149.9 890.5 127.65 868.25 149.9 846 127.65 823.75 149.9 801.5 127.65 779.25 149.9 757 127.65 734.75 149.9 712.5 127.65 690.25 149.9 668 127.65 645.8 149.9 623.55 127.65 601.3 149.9 579.05 127.65 556.8 149.9 534.55 127.65 512.3"/>
    <path stroke="none" fill="#D22223" d="M587 1024 L587 490 639 490 639 1024 587 1024"/>
    <path stroke="none" fill="#1A1A1A" d="M1024 999 L1024 1024 611 1024 611 999 1024 999"/>
    <path stroke="none" fill="#131313" d="M1024 999 L611 999 611 995 1024 995 1024 999"/>
    <path stroke="none" fill="url(#gradient0)" d="M611 995 L611 764 1024 764 1024 995 611 995"/>
    <path stroke="none" fill="url(#gradient1)" d="M824 134 L1024 134 1024 524 824 524 824 134"/>
    <path stroke="none" fill="url(#gradient2)" d="M321.5 479 L395.2 472.05 Q443.15 273.75 360.85 295.2 344.75 299.35 321.5 299.55 298.25 299.35 282.15 295.2 199.85 273.75 247.8 472.05 L321.5 479 M0 0 L639 0 639 490 0 490 0 0"/>
    <path stroke="none" fill="url(#gradient3)" d="M321.5 479 L247.8 472.05 Q199.85 273.75 282.15 295.2 298.25 299.35 321.5 299.55 344.75 299.35 360.85 295.2 443.15 273.75 395.2 472.05 L321.5 479"/>
    <path stroke="none" fill="#F58C6A" d="M639 524 L1024 524 1024 764 639 764 639 524"/>
    <path stroke="none" fill="#E4783E" d="M639 134 L639 0 1024 0 1024 134 824 134 639 134"/>
    <path stroke="none" fill="#CCDDE7" d="M639 134 L824 134 824 524 639 524 639 134"/>
    <path stroke="none" fill="#000000" fill-opacity="0.10196078431372549" d="M1024 785 L1024 801 613 801 613 785 1024 785"/>
    <path stroke="none" fill="url(#gradient4)" d="M683 785 Q683 835 633 835 L633 785 683 785"/>
    <path stroke="none" fill="url(#gradient5)" d="M769 785 L819 785 819 835 Q769 835 769 785"/>
    <path stroke="none" fill="#1E1E1E" d="M160 498 L160 490 483 490 483 498 160 498 M483 1016 L483 1024 160 1024 160 1016 483 1016"/>
    <path stroke="none" fill="url(#gradient6)" d="M160 498 L483 498 483 655 160 655 160 498"/>
    <path stroke="none" fill="#252525" d="M483 655 L483 859 160 859 160 655 483 655"/>
    <path stroke="none" fill="url(#gradient7)" d="M483 859 L483 1016 160 1016 160 859 483 859"/>
    <path stroke="none" fill="#131313" d="M320.35 718.25 L286.75 722.75 281.6 740.35 288.4 762.85 320.1 777.9 Q336.25 770.4 352.35 762.85 L359.15 740.35 354 722.75 320.35 718.25 M282.1 768.95 L275.3 746.45 Q274.7 744.55 275.3 742.65 L280.45 725 Q281 723.15 282.45 721.85 283.95 720.6 285.9 720.35 L319.5 715.85 321.25 715.85 354.85 720.35 Q356.8 720.6 358.25 721.85 359.75 723.15 360.3 725 L365.45 742.65 Q366 744.55 365.4 746.45 L358.65 768.95 Q358.1 770.6 356.85 771.85 355.55 773.05 353.9 773.45 L320.2 789.75 286.85 773.45 Q285.2 773.05 283.9 771.85 282.65 770.6 282.1 768.95"/>
    <path stroke="none" fill="#F59473" d="M320.35 718.25 L354 722.75 359.15 740.35 352.35 762.85 Q336.25 770.4 320.1 777.9 L288.4 762.85 281.6 740.35 286.75 722.75 320.35 718.25"/>
    <path stroke="none" fill="#999999" d="M483 937.55 L483 958.55 Q330.35 987.7 160 1006.55 L160 985.55 Q315.55 969.95 483 937.55"/>
    <path stroke="none" fill="#CCDDE7" d="M666.55 151.3 L666.6 177.95 668.05 193.65 674.1 219.85 678.1 233.65 689.7 262.05 697.75 281.75 Q699.65 286.45 703.2 290 L703.8 290.55 Q709 295.7 716.05 297.3 L720.85 298.4 730.6 298.75 736.6 297.75 Q743.25 296.7 748.5 292.5 753.85 288.15 756.3 281.65 L761.8 266.7 779.4 218.8 798.15 169.6 798.25 155.9 800.65 151.3 806.45 140 821 144.55 821 326.95 646 326.95 646 151.3 666.55 151.3"/>
    <path stroke="none" fill="#EA3031" d="M666.55 151.3 L691.45 151.3 694.35 167.6 695.05 171.75 696.05 177.95 Q697.1 184.55 701.5 189.7 L709.85 199.25 Q713.2 203.15 717.9 205.3 722.55 207.4 727.75 207.4 735.95 207.4 742.35 202.35 L745.8 199.65 Q748.9 197.2 751.1 193.8 L755.9 186.3 Q757.2 184.15 758.1 181.85 L769.75 151.3 800.65 151.3 798.25 155.9 798.15 169.6 779.4 218.8 761.8 266.7 744.95 249.5 707.45 249.5 689.7 262.05 678.1 233.65 674.1 219.85 668.05 193.65 666.6 177.95 666.55 151.3 M716.2 231.35 Q715.1 231.35 714.3 232.15 713.5 232.95 713.5 234.05 L713.5 234.1 Q713.5 235.2 714.3 235.95 715.1 236.75 716.2 236.75 L737.45 236.75 Q738.55 236.75 739.35 235.95 740.15 235.2 740.15 234.1 L740.15 234.05 Q740.15 232.95 739.35 232.15 738.55 231.35 737.45 231.35 L716.2 231.35 M716.2 221.35 Q715.1 221.35 714.3 222.15 713.5 222.95 713.5 224.05 L713.5 224.1 Q713.5 225.2 714.3 225.95 715.1 226.75 716.2 226.75 L737.45 226.75 Q738.55 226.75 739.35 225.95 740.15 225.2 740.15 224.1 L740.15 224.05 Q740.15 222.95 739.35 222.15 738.55 221.35 737.45 221.35 L716.2 221.35 M716.2 211.35 Q715.1 211.35 714.3 212.15 713.5 212.95 713.5 214.05 L713.5 214.1 Q713.5 215.2 714.3 215.95 715.1 216.75 716.2 216.75 L737.45 216.75 Q738.55 216.75 739.35 215.95 740.15 215.2 740.15 214.1 L740.15 214.05 Q740.15 212.95 739.35 212.15 738.55 211.35 737.45 211.35 L716.2 211.35"/>
    <path stroke="none" fill="#F4F4F4" d="M716.2 211.35 L737.45 211.35 Q738.55 211.35 739.35 212.15 740.15 212.95 740.15 214.05 L740.15 214.1 Q740.15 215.2 739.35 215.95 738.55 216.75 737.45 216.75 L716.2 216.75 Q715.1 216.75 714.3 215.95 713.5 215.2 713.5 214.1 L713.5 214.05 Q713.5 212.95 714.3 212.15 715.1 211.35 716.2 211.35 M769.75 151.3 L758.1 181.85 Q757.2 184.15 755.9 186.3 L751.1 193.8 Q748.9 197.2 745.8 199.65 L742.35 202.35 Q735.95 207.4 727.75 207.4 722.55 207.4 717.9 205.3 713.2 203.15 709.85 199.25 L701.5 189.7 Q697.1 184.55 696.05 177.95 L695.05 171.75 694.35 167.6 691.45 151.3 769.75 151.3 M716.2 221.35 L737.45 221.35 Q738.55 221.35 739.35 222.15 740.15 222.95 740.15 224.05 L740.15 224.1 Q740.15 225.2 739.35 225.95 738.55 226.75 737.45 226.75 L716.2 226.75 Q715.1 226.75 714.3 225.95 713.5 225.2 713.5 224.1 L713.5 224.05 Q713.5 222.95 714.3 222.15 715.1 221.35 716.2 221.35 M716.2 231.35 L737.45 231.35 Q738.55 231.35 739.35 232.15 740.15 232.95 740.15 234.05 L740.15 234.1 Q740.15 235.2 739.35 235.95 738.55 236.75 737.45 236.75 L716.2 236.75 Q715.1 236.75 714.3 235.95 713.5 235.2 713.5 234.1 L713.5 234.05 Q713.5 232.95 714.3 232.15 715.1 231.35 716.2 231.35"/>
    <path stroke="none" fill="#F6F6F6" d="M761.8 266.7 L756.3 281.65 Q753.85 288.15 748.5 292.5 743.25 296.7 736.6 297.75 L730.6 298.75 720.85 298.4 716.05 297.3 Q709 295.7 703.8 290.55 L703.2 290 Q699.65 286.45 697.75 281.75 L689.7 262.05 707.45 249.5 744.95 249.5 761.8 266.7"/>
    <path stroke="none" fill="#F4F4F4" d="M769.75 326.3 L758.1 356.85 Q757.2 359.15 755.9 361.3 L751.1 368.8 Q748.9 372.2 745.8 374.65 L742.35 377.35 Q735.95 382.4 727.75 382.4 722.55 382.4 717.9 380.3 713.2 378.15 709.85 374.25 L701.5 364.7 Q697.1 359.55 696.05 352.95 L695.05 346.75 694.35 342.6 691.45 326.3 769.75 326.3 M716.2 386.35 L737.45 386.35 Q738.55 386.35 739.35 387.15 740.15 387.95 740.15 389.05 L740.15 389.1 Q740.15 390.2 739.35 390.95 738.55 391.75 737.45 391.75 L716.2 391.75 Q715.1 391.75 714.3 390.95 713.5 390.2 713.5 389.1 L713.5 389.05 Q713.5 387.95 714.3 387.15 715.1 386.35 716.2 386.35 M716.2 396.35 L737.45 396.35 Q738.55 396.35 739.35 397.15 740.15 397.95 740.15 399.05 L740.15 399.1 Q740.15 400.2 739.35 400.95 738.55 401.75 737.45 401.75 L716.2 401.75 Q715.1 401.75 714.3 400.95 713.5 400.2 713.5 399.1 L713.5 399.05 Q713.5 397.95 714.3 397.15 715.1 396.35 716.2 396.35 M716.2 406.35 L737.45 406.35 Q738.55 406.35 739.35 407.15 740.15 407.95 740.15 409.05 L740.15 409.1 Q740.15 410.2 739.35 410.95 738.55 411.75 737.45 411.75 L716.2 411.75 Q715.1 411.75 714.3 410.95 713.5 410.2 713.5 409.1 L713.5 409.05 Q713.5 407.95 714.3 407.15 715.1 406.35 716.2 406.35"/>
    <path stroke="none" fill="#EA3031" d="M716.2 406.35 Q715.1 406.35 714.3 407.15 713.5 407.95 713.5 409.05 L713.5 409.1 Q713.5 410.2 714.3 410.95 715.1 411.75 716.2 411.75 L737.45 411.75 Q738.55 411.75 739.35 410.95 740.15 410.2 740.15 409.1 L740.15 409.05 Q740.15 407.95 739.35 407.15 738.55 406.35 737.45 406.35 L716.2 406.35 M691.45 326.3 L694.35 342.6 695.05 346.75 696.05 352.95 Q697.1 359.55 701.5 364.7 L709.85 374.25 Q713.2 378.15 717.9 380.3 722.55 382.4 727.75 382.4 735.95 382.4 742.35 377.35 L745.8 374.65 Q748.9 372.2 751.1 368.8 L755.9 361.3 Q757.2 359.15 758.1 356.85 L769.75 326.3 800.65 326.3 798.25 330.9 798.15 344.6 779.4 393.8 761.8 441.7 744.95 424.5 707.45 424.5 689.7 437.05 678.1 408.65 674.1 394.85 668.05 368.65 666.6 352.95 666.55 326.3 691.45 326.3 M716.2 386.35 Q715.1 386.35 714.3 387.15 713.5 387.95 713.5 389.05 L713.5 389.1 Q713.5 390.2 714.3 390.95 715.1 391.75 716.2 391.75 L737.45 391.75 Q738.55 391.75 739.35 390.95 740.15 390.2 740.15 389.1 L740.15 389.05 Q740.15 387.95 739.35 387.15 738.55 386.35 737.45 386.35 L716.2 386.35 M716.2 396.35 Q715.1 396.35 714.3 397.15 713.5 397.95 713.5 399.05 L713.5 399.1 Q713.5 400.2 714.3 400.95 715.1 401.75 716.2 401.75 L737.45 401.75 Q738.55 401.75 739.35 400.95 740.15 400.2 740.15 399.1 L740.15 399.05 Q740.15 397.95 739.35 397.15 738.55 396.35 737.45 396.35 L716.2 396.35"/>
    <path stroke="none" fill="#CCDDE7" d="M666.55 326.3 L666.6 352.95 668.05 368.65 674.1 394.85 678.1 408.65 689.7 437.05 697.75 456.75 Q699.65 461.45 703.2 465 L703.8 465.55 Q709 470.7 716.05 472.3 L720.85 473.4 730.6 473.75 736.6 472.75 Q743.25 471.7 748.5 467.5 753.85 463.15 756.3 456.65 L761.8 441.7 779.4 393.8 798.15 344.6 798.25 330.9 800.65 326.3 806.45 315 821 319.55 821 501.95 646 501.95 646 326.3 666.55 326.3"/>
    <path stroke="none" fill="#F6F6F6" d="M689.7 437.05 L707.45 424.5 744.95 424.5 761.8 441.7 756.3 456.65 Q753.85 463.15 748.5 467.5 743.25 471.7 736.6 472.75 L730.6 473.75 720.85 473.4 716.05 472.3 Q709 470.7 703.8 465.55 L703.2 465 Q699.65 461.45 697.75 456.75 L689.7 437.05"/>
    <path stroke="none" fill="#220F0F" d="M0 315.5 L0 0 320 0 320 151.5 Q241.35 156.6 235.2 200.3 233.05 215.45 229.2 219.65 218.4 231.45 200.1 219.9 177.35 205.55 142.45 258.05 119.25 293 0 315.5"/>
    <path stroke="none" fill="#F47B66" d="M182.3 220.7 L182.55 220.6 183.25 220.15 183.45 220.05 187.75 218.55 188.05 218.5 188.2 218.45 190.35 218.15 190.5 218.15 190.85 218.15 191.7 218.25 Q192.1 218.25 192.25 218.85 192.6 219.35 192.2 219.75 192.15 220.2 191.45 220.3 L189.25 221.3 189.05 221.4 188.35 221.8 188.25 221.85 Q188.1 221.95 187.9 222 L187.5 222.3 187.4 222.35 185.2 223.85 183.05 225.8 183.1 225.7 182.75 226.1 182.6 226.25 180.9 228.3 180.8 228.35 180.7 228.45 180.15 229.35 180.1 229.4 180.05 229.5 179.85 229.8 179.65 230.2 179.6 230.35 179.5 230.55 179.4 230.75 179.35 230.8 178.6 232.65 178.3 233.5 177.85 235.75 177.75 237.5 177.75 237.6 177.7 237.95 177.75 239.2 178.1 241.4 178.25 242.15 178.35 242.45 178.4 242.6 178.4 242.7 178.95 244.2 180 246.25 180.05 246.35 180.1 246.45 180.4 246.95 180.95 247.65 181 247.75 181.35 248.2 181.45 248.3 181.55 248.4 182.1 249.05 182.2 249.15 182.35 249.3 182.45 249.35 183.45 250.4 183.55 250.5 183.85 250.8 184.25 251.1 184.35 251.2 184.4 251.25 184.55 251.35 187.15 253.3 188.45 254 188.5 254.05 189.3 254.45 189.45 254.5 189.8 254.65 189.95 254.75 190.2 254.8 190.4 254.9 191.35 255.25 191.45 255.3 191.8 255.45 191.9 255.45 194.25 256.2 194.65 256.45 194.7 256.5 195 257.2 194.7 257.9 194.6 258 194 258.3 193 258.4 192.85 258.4 189.3 258.15 189 258.1 188.9 258.1 188.4 258 188.3 258 187.3 257.75 187.15 257.7 186.6 257.55 186.45 257.5 184.55 256.8 184.4 256.7 184.15 256.55 183.05 256.05 182.95 256 180.4 254.45 180.25 254.35 176.95 251.4 176.8 251.2 176.7 251.05 176.75 251.2 175.95 250.3 175.9 250.15 175.75 249.95 175.55 249.75 175.45 249.6 174.65 248.4 174.6 248.4 Q173.75 247 173.25 245.7 L173.2 245.65 172.5 243.75 172.5 243.65 172.3 242.75 Q171.85 241.2 171.8 239.7 L171.75 239.35 171.75 239.2 171.75 236.95 171.8 236.65 171.8 236.5 172.25 233.55 172.3 233.5 Q172.6 232 173.25 230.55 L173.3 230.35 173.35 230.25 173.65 229.6 173.75 229.45 173.85 229.3 173.75 229.4 174.15 228.6 174.25 228.5 174.45 228.2 174.35 228.3 174.5 228 174.6 227.9 174.9 227.45 175 227.3 175.05 227.3 175.4 226.75 175.5 226.6 175.55 226.6 175.6 226.5 175.65 226.4 176.9 224.9 177.05 224.8 177.3 224.6 177.6 224.3 177.8 224.05 177.9 223.9 179.05 222.9 179.2 222.8 179.4 222.7 179.45 222.6 179.55 222.5 179.95 222.15 180.1 222.05 182.1 220.75 182.3 220.7 M194.55 237.6 Q195 240.65 194.2 242.95 193.3 245.3 191.6 245.6 189.95 245.85 188.45 243.8 186.95 241.9 186.5 238.85 186 235.75 186.9 233.4 187.7 231.1 189.35 230.85 191.05 230.55 192.6 232.55 194.05 234.5 194.55 237.6 M190.05 254.8 L190.1 254.85 190.1 254.8 190.05 254.8"/>
    <path stroke="none" fill="#F47B66" d="M444.45 237.6 Q444.95 234.5 446.4 232.55 447.95 230.55 449.65 230.85 451.3 231.1 452.1 233.4 453 235.75 452.5 238.85 452.05 241.9 450.55 243.8 449.05 245.85 447.4 245.6 445.7 245.3 444.8 242.95 444 240.65 444.45 237.6 M456.7 220.7 L456.9 220.75 458.9 222.05 459.05 222.15 459.45 222.5 459.55 222.6 459.6 222.7 459.8 222.8 459.95 222.9 461.1 223.9 461.2 224.05 461.4 224.3 461.7 224.6 461.95 224.8 462.1 224.9 463.35 226.4 463.4 226.5 463.45 226.6 463.5 226.6 463.6 226.75 463.95 227.3 464 227.3 464.1 227.45 464.4 227.9 464.5 228 464.65 228.3 464.55 228.2 464.75 228.5 464.85 228.6 465.25 229.4 465.15 229.3 465.25 229.45 465.35 229.6 465.65 230.25 465.7 230.35 465.75 230.55 466.7 233.5 466.75 233.55 467.2 236.5 467.2 236.65 467.25 236.95 467.25 239.2 467.25 239.35 467.2 239.7 Q467.15 241.2 466.7 242.75 L466.5 243.65 466.5 243.75 465.8 245.65 465.75 245.7 464.4 248.4 464.35 248.4 463.55 249.6 463.45 249.75 463.25 249.95 463.1 250.15 463.05 250.3 462.25 251.2 462.3 251.05 462.2 251.2 462.05 251.4 458.75 254.35 458.6 254.45 456.05 256 455.95 256.05 454.85 256.55 454.6 256.7 454.45 256.8 452.55 257.5 452.4 257.55 451.85 257.7 451.7 257.75 450.7 258 450.6 258 450.1 258.1 450 258.1 449.7 258.15 446.15 258.4 446 258.4 445 258.3 Q444.65 258.25 444.4 258 L444.3 257.9 Q444 257.6 444 257.2 444 256.8 444.3 256.5 L444.35 256.45 444.75 256.2 447.1 255.45 447.2 255.45 447.55 255.3 447.65 255.25 448.6 254.9 448.8 254.8 449.05 254.75 449.2 254.65 449.55 254.5 449.7 254.45 450.5 254.05 450.55 254 451.85 253.3 454.45 251.35 454.6 251.25 454.65 251.2 454.75 251.1 455.15 250.8 455.45 250.5 455.55 250.4 456.55 249.35 456.65 249.3 456.8 249.15 456.9 249.05 457.45 248.4 457.55 248.3 457.65 248.2 458 247.75 458.05 247.65 458.6 246.95 458.9 246.45 458.95 246.35 459 246.25 460.05 244.2 460.6 242.7 460.6 242.6 460.65 242.45 460.75 242.15 460.9 241.4 461.25 239.2 461.3 237.95 461.25 237.6 461.25 237.5 461.15 235.75 460.7 233.5 460.4 232.65 459.65 230.8 459.6 230.75 459.5 230.55 459.4 230.35 459.35 230.2 459.15 229.8 458.95 229.5 458.9 229.4 458.85 229.35 458.3 228.45 458.2 228.35 458.1 228.3 456.4 226.25 456.25 226.1 455.9 225.7 455.95 225.8 453.8 223.85 451.6 222.35 451.5 222.3 451.1 222 450.75 221.85 450.65 221.8 449.95 221.4 449.75 221.3 447.55 220.3 Q446.85 220.2 446.8 219.75 446.4 219.35 446.75 218.85 446.9 218.25 447.3 218.25 L448.15 218.15 448.5 218.15 448.65 218.15 450.8 218.45 450.95 218.5 451.25 218.55 455.55 220.05 455.75 220.15 456.45 220.6 456.7 220.7 M448.95 254.8 L448.9 254.8 448.9 254.85 448.95 254.8"/>
    <path stroke="none" fill="#220F0F" d="M639 315.5 Q519.75 293 496.55 258.05 461.65 205.55 438.9 219.9 420.6 231.45 409.8 219.65 405.95 215.45 403.8 200.3 397.65 156.6 319 151.5 L319 0 639 0 639 315.5"/>
    <path stroke="none" fill="#220F0F" d="M354.75 212.3 L366.95 212.3 366.95 220.45 Q366.95 223.85 364.55 226.25 L362.9 227.6 362.9 229.1 Q362.9 232.5 360.5 234.9 358.1 237.3 354.75 237.3 351.4 237.3 349 234.9 346.65 232.5 346.65 229.1 L346.65 220.45 346.65 220.3 347.35 217.3 Q347.8 215.85 349 214.7 350.25 213.45 351.65 212.85 L354.75 212.3 M344.35 197.7 Q342.55 198.15 341.3 196.8 340.05 195.4 341.2 193.85 343.2 191.05 348.1 189.6 353.3 188.05 359.55 188.95 365.8 189.8 370.4 192.7 374.65 195.4 375.9 198.65 376.55 200.4 374.95 201.55 373.4 202.6 371.85 201.55 369.15 199.8 365.3 198.85 L358.4 197.6 Q349.25 196.25 344.35 197.7 M295.35 205.65 Q290.45 204.2 281.3 205.55 L274.35 206.8 Q270.55 207.8 267.85 209.5 266.3 210.55 264.75 209.5 263.15 208.35 263.8 206.6 265.05 203.35 269.3 200.65 273.9 197.8 280.15 196.9 286.4 196.05 291.6 197.6 296.5 199.05 298.5 201.8 299.55 203.35 298.4 204.8 297.15 206.25 295.35 205.65 M279.3 229.1 L279.3 227.6 Q278.4 227 277.65 226.25 275.25 223.85 275.25 220.45 L275.25 212.3 287.45 212.3 Q290.8 212.3 293.2 214.7 295.6 217.1 295.6 220.45 L295.6 229.1 Q295.6 232.5 293.2 234.9 290.8 237.3 287.45 237.3 284.1 237.3 281.7 234.9 279.3 232.5 279.3 229.1"/>
    <path stroke="none" fill="#F47D59" d="M330.15 242.3 Q332.05 242.7 332.05 244.6 L331.95 245.3 Q330.05 251.45 321.2 251.45 312.35 251.45 310.5 245.3 L310.45 244.6 Q310.45 242.6 312.35 242.3 321.3 244.35 330.15 242.3 M354.45 250.85 Q355.7 250.85 356.55 251.7 357.45 252.6 357.45 253.85 357.45 255.1 356.55 255.85 355.7 256.7 354.45 256.7 353.2 256.7 352.35 255.85 351.5 255.1 351.5 253.85 351.5 252.6 352.35 251.7 353.2 250.85 354.45 250.85 M363 257.5 Q364.25 257.5 365.15 258.35 366 259.2 366 260.35 366 261.6 365.15 262.5 364.25 263.35 363 263.35 361.75 263.35 361 262.5 360.15 261.6 360.15 260.35 360.15 259.2 361 258.35 361.75 257.5 363 257.5 M364.35 246.7 Q365.6 246.7 366.45 247.6 367.35 248.45 367.35 249.7 367.35 250.95 366.45 251.7 365.6 252.6 364.35 252.6 363.1 252.6 362.35 251.7 361.5 250.95 361.5 249.7 361.5 248.45 362.35 247.6 363.1 246.7 364.35 246.7 M277.65 246.7 Q278.8 246.7 279.65 247.6 280.55 248.45 280.55 249.7 280.55 250.95 279.65 251.7 278.8 252.6 277.65 252.6 276.4 252.6 275.55 251.7 274.65 250.95 274.65 249.7 274.65 248.45 275.55 247.6 276.4 246.7 277.65 246.7 M278.9 257.5 Q280.15 257.5 281 258.35 281.85 259.2 281.85 260.35 281.85 261.6 281 262.5 280.15 263.35 278.9 263.35 277.75 263.35 276.85 262.5 276 261.6 276 260.35 276 259.2 276.85 258.35 277.75 257.5 278.9 257.5 M287.55 250.85 Q288.8 250.85 289.55 251.7 290.45 252.6 290.45 253.85 290.45 255.1 289.55 255.85 288.8 256.7 287.55 256.7 286.3 256.7 285.45 255.85 284.55 255.1 284.55 253.85 284.55 252.6 285.45 251.7 286.3 250.85 287.55 250.85"/>
    <path stroke="none" fill="#220F0F" d="M306.8 258.95 Q307.85 258.25 308.9 258.7 311.8 260.35 313.5 259.3 L315.3 258 Q317.15 256.65 319.1 257.15 L320.05 257.55 321.15 257.85 Q322.3 258.1 324.05 257.35 L327.7 257.2 Q328.8 257.5 329.65 258.35 331.25 259.45 333.6 258.05 334.95 257.2 335.95 257.7 337.2 258.6 336.7 260.45 335.9 263.95 331.95 267.05 327.5 270.45 321.5 270.8 315.45 271.15 310.75 268.2 306.55 265.45 305.7 261.75 305.3 259.95 306.8 258.95"/>
    <path stroke="none" fill="#220F0F" d="M463.05 161.85 Q463.05 195.7 439.1 219.7 415.1 243.65 381.25 243.65 347.4 243.65 323.4 219.7 314 210.3 309.65 199.8 298.55 172.9 287.05 168.5 263.3 159.65 247.7 175 277.35 122.25 300.7 147 304.9 122.55 323.4 104 347.4 80.05 381.25 80.05 415.1 80.05 439.1 104 463.05 128 463.05 161.85"/>
    <path stroke="none" fill="#220F0F" d="M307.6 170.45 L342.05 179.7 Q342.95 180 343.6 180.75 344.2 181.55 344.35 182.5 344.45 183.45 344 184.35 331.15 209.5 335.1 230.75 335.3 231.75 334.9 232.85 L333.4 234.1 Q332.45 234.6 331.5 234.35 330.55 234.35 329.7 233.45 304.7 207.25 303.6 173.65 303.55 172.45 304.1 171.65 L305.7 170.45 Q306.55 170.2 307.6 170.45"/>
    <path stroke="none" fill="#220F0F" d="M279.15 128.95 L296.95 159.85 Q297.4 160.7 297.3 161.7 297.2 162.7 296.65 163.45 L295.1 164.55 Q268.2 173.2 255.95 191.05 255.4 191.9 254.35 192.35 L252.4 192.2 Q251.4 191.85 250.85 191.05 250.2 190.4 250.25 189.15 251.1 152.9 274.1 128.35 274.9 127.5 275.85 127.35 L277.8 127.6 Q278.6 128 279.15 128.95"/>
    <path stroke="none" fill="#220F0F" d="M330.8 214.55 L363.45 200.15 365.3 200 Q366.25 200.25 367 200.9 367.65 201.6 367.85 202.6 373.6 230.25 389.95 244.3 390.8 244.95 391.15 246.1 391.25 247.05 390.75 247.95 390.35 248.95 389.4 249.35 388.7 249.95 387.45 249.8 351.6 245.05 329.65 219.55 328.9 218.6 328.8 217.7 328.8 216.65 329.3 215.75 329.8 215 330.8 214.55"/>
    <path stroke="none" fill="#220F0F" d="M368.15 231.45 L389.2 202.7 Q389.8 202 390.75 201.6 L392.7 201.55 Q393.6 201.85 394.25 202.6 413.05 223.65 434.25 227.65 435.3 227.8 436.2 228.65 436.75 229.4 436.75 230.45 436.9 231.5 436.3 232.3 436 233.15 434.85 233.7 401.4 247.45 369.65 236.4 368.55 235.9 368 235.2 367.45 234.25 367.45 233.25 367.5 232.35 368.15 231.45"/>
    <path stroke="none" fill="#38BB96" d="M332.2 182.6 L335.35 187.15 335.65 187.6 342.7 196.25 342.85 196.35 342.9 196.4 344 197.6 344.2 197.8 350.25 203.4 350.1 203.35 355.05 207.2 359.35 210.15 359.6 210.35 364.3 213.3 364.75 213.6 364.95 213.7 373.45 218.65 373.5 218.75 375.8 220.2 376.65 221.1 Q377 221.8 376.95 222.4 L376.45 223.65 376.45 223.75 375.1 224.65 374.85 224.75 374.5 224.8 372 225.2 371.7 225.25 366.15 225.5 365.85 225.5 361.05 225.1 360.7 225.05 353.55 223.4 353.25 223.3 347.25 221.1 347.15 221.05 343.45 219.15 342.15 218.4 342 218.3 341.75 218.15 337.6 215.3 337.3 215 337.2 214.9 333.35 211.55 333.25 211.4 330.35 208.3 330.2 208.15 329.95 207.8 329.75 207.55 327.7 204.9 327.6 204.75 324.45 199.7 324.3 199.45 322.1 194.75 322 194.5 320.2 189.1 320.1 188.75 318.75 182 318.75 181.75 318.5 177.25 318.45 177 318.8 171.15 318.85 170.85 318.95 170.05 Q319.1 169.3 319.65 168.8 320.1 168.3 320.8 168.1 321.5 167.85 322.15 168.1 L322.25 168.15 Q323.05 168.45 323.6 169.15 L330.65 180.2 330.75 180.4 332.1 182.4 332.2 182.6"/>
    <path stroke="none" fill="#38BB96" d="M301.25 807 Q310.2 807 316.55 813.35 319.5 816.3 321.05 819.8 322.65 816.3 325.6 813.35 331.9 807 340.85 807 349.8 807 356.15 813.35 362.45 819.65 362.45 828.6 362.45 837.55 356.15 843.9 L356 844 355.65 844.35 322.35 877.65 Q321.8 878.2 321.05 878.2 320.3 878.2 319.8 877.65 L286.5 844.4 286.5 844.35 286.15 844 286 843.9 Q279.65 837.55 279.65 828.6 279.65 819.65 286 813.35 292.35 807 301.25 807 M310.2 829.15 Q310.2 825.6 307.65 823.1 305.15 820.55 301.6 820.55 298.05 820.55 295.5 823.1 293 825.6 293 829.15 293 832.7 295.5 835.25 298.05 837.75 301.6 837.75 305.15 837.75 307.65 835.25 310.2 832.7 310.2 829.15 M349.1 829.15 Q349.1 825.6 346.6 823.1 344.05 820.55 340.5 820.55 336.95 820.55 334.45 823.1 331.9 825.6 331.9 829.15 331.9 832.7 334.45 835.25 336.95 837.75 340.5 837.75 344.05 837.75 346.6 835.25 349.1 832.7 349.1 829.15 M312.95 846.35 Q316.3 849.7 321.05 849.7 325.8 849.7 329.15 846.35 331.6 843.9 332.25 840.75 L332.2 840.05 331.8 839.55 331.15 839.35 Q330.8 839.35 330.55 839.55 321.05 846.1 311.6 839.55 L310.95 839.35 310.35 839.55 309.95 840.05 309.85 840.7 Q310.5 843.9 312.95 846.35"/>
    <path stroke="none" fill="url(#gradient8)" d="M374.1 881.3 Q366.25 890.2 352.25 895.5 337.75 900.85 320.9 900.85 303.75 900.85 289.2 895.3 275.1 889.95 267.3 880.85 274.8 884.9 283.35 885.6 291.9 886.25 299.95 883.4 310.3 879.75 321.15 879.75 332.05 879.75 342.35 883.4 350.2 886.15 358.5 885.6 366.7 885.05 374.1 881.3"/>
    <path stroke="none" fill="#252525" d="M493.1 490 L515.35 512.25 493.1 534.5 515.35 556.75 493.1 579 515.35 601.25 493.1 623.5 515.35 645.75 493.1 667.95 515.35 690.2 493.1 712.45 515.35 734.7 493.1 756.95 515.35 779.2 493.1 801.45 515.35 823.7 493.1 845.95 515.35 868.2 493.1 890.45 515.35 912.7 493.1 934.95 515.35 957.2 493.1 979.45 515.35 1001.7 493.1 1023.95 483 1023.95 483 490 493.1 490"/>
    <path stroke="none" fill="#999999" d="M483 561 Q315.55 531.6 160 519 L160 499.5 Q330.35 513.85 483 543 L483 561"/>
    <path stroke="none" fill="#D7CBCB" d="M325.65 281.7 Q325.65 283.35 324.5 284.45 323.35 285.6 321.75 285.6 320.15 285.6 319 284.45 317.85 283.35 317.85 281.7 317.85 280.1 319 278.95 320.15 277.8 321.75 277.8 323.35 277.8 324.5 278.95 325.65 280.1 325.65 281.7"/>
    <path stroke="none" fill="#D22223" d="M4 1024 L4 490 56 490 56 1024 4 1024"/>
    <path stroke="none" fill="#2C2C2C" d="M659.1 907.55 L658.85 907.55 642.2 905.75 Q641.75 905.7 641.45 905.4 L641.15 904.65 Q641.2 904.2 641.5 903.9 641.75 903.55 642.15 903.55 L658.85 901.75 659.1 901.75 675.75 903.55 Q676.2 903.55 676.45 903.9 L676.75 904.65 676.4 905.4 Q676.2 905.75 675.8 905.75 L659.1 907.55 M659.85 923.4 L659.7 923.45 648.1 924.7 647.5 924.45 647.15 923.8 Q647 923.35 647.15 923 647.25 922.6 647.5 922.55 L658.2 917.8 658.35 917.75 669.95 916.55 Q670.25 916.45 670.5 916.75 L670.9 917.45 670.8 918.2 670.5 918.65 659.85 923.4 M658.7 893.7 L658.55 893.7 647.35 890.65 646.85 890.25 646.75 889.45 647.05 888.75 647.55 888.45 659.2 887.95 659.35 887.95 670.6 891.05 671.05 891.45 671.2 892.25 670.85 892.95 670.4 893.25 658.7 893.7 M794.1 907.55 L777.4 905.75 776.8 905.4 Q776.45 905.05 776.45 904.65 776.45 904.2 776.75 903.9 777 903.55 777.45 903.55 L794.1 901.75 794.35 901.75 811.05 903.55 Q811.45 903.55 811.7 903.9 L812.05 904.65 811.75 905.4 811 905.75 794.35 907.55 794.1 907.55 M794.5 893.7 L782.8 893.25 782.35 892.95 782 892.25 782.15 891.45 Q782.25 891.1 782.6 891.05 L793.85 887.95 794 887.95 805.65 888.45 806.15 888.75 806.45 889.45 806.35 890.25 805.85 890.65 794.65 893.7 794.5 893.7 M793.35 923.4 L782.7 918.65 Q782.4 918.6 782.4 918.2 782.2 917.8 782.3 917.45 L782.7 916.75 Q782.95 916.45 783.25 916.55 L794.85 917.75 795 917.8 805.7 922.55 Q805.95 922.6 806.05 923 L806.05 923.8 805.7 924.45 805.1 924.7 793.5 923.45 793.35 923.4"/>
    <path stroke="none" fill="#D7CBCB" d="M309 982.35 Q309.35 985.9 312.85 985.55 L314.05 985.45 313.45 979.05 308.75 979.5 309 982.35 M307.85 970.65 L308.15 973.55 312.85 973.1 312.2 966.7 311 966.8 Q307.5 967.15 307.85 970.65 M301.9 971.25 Q300.95 961.8 310.4 960.85 L337.2 958.2 Q346.65 957.25 347.6 966.7 L348.75 978.4 Q349.7 987.9 340.25 988.85 L313.45 991.5 Q304 992.45 303.05 982.95 L301.9 971.25 M337.8 964.15 L319.95 965.9 320.6 972.3 324.65 971.9 Q325.85 971.8 326.85 972.6 327.75 973.3 327.95 974.55 328 975.8 327.25 976.75 326.45 977.7 325.25 977.85 L321.2 978.25 321.8 984.65 339.65 982.9 Q343.15 982.55 342.8 979 L341.65 967.3 Q341.3 963.8 337.8 964.15"/>
  </g>
</svg>